<?xml version="1.0" encoding="utf-8"?>
<!-- Generator: Adobe Illustrator 27.3.1, SVG Export Plug-In . SVG Version: 6.00 Build 0)  -->
<svg version="1.1" id="Layer_1" xmlns="http://www.w3.org/2000/svg" xmlns:xlink="http://www.w3.org/1999/xlink" x="0px" y="0px"
	 viewBox="0 0 841.89 595.28" style="enable-background:new 0 0 841.89 595.28;" xml:space="preserve">
<style type="text/css">
	.st0{fill:#FFFFFF;}
	.st1{fill:#2C5C6E;}
	.st2{fill:#FBD600;}
</style>
<g>
	<path d="M661.24,284.71c-0.41,3.54-0.86,7.08-1.32,10.58c-0.66,4.98-3.99,9.18-8.69,10.91c-55.58,20.79-141.63,34.13-238.27,34.13
		c-87.12,0-165.68-10.87-221.06-28.24c-4.94-1.56-8.6-5.85-9.31-11.03v-0.08c-1.6-11.86-2.8-23.76-3.79-35.29
		c-2.1-23.76-2.3-47.64-0.66-71.39v-0.33c0.49-7,0.9-13.79,1.36-20.55c0.25-3.83,1.44-5.97,5.64-6.5
		c37.88-4.78,73.78-16.88,108.78-31.33c38.58-15.93,76.5-33.47,114.58-50.68c8.48-3.83,16.02-4.08,24.42,0.04
		c47.93,23.51,96.55,45.41,147.11,62.83c24.83,8.52,49.98,16.18,76.21,19.15c4.74,0.49,5.35,3.29,5.81,7.08
		c0.95,8.81,1.69,17.62,2.14,26.43C665.65,228.55,664.5,256.67,661.24,284.71z"/>
	<path d="M658.44,317.44c-5.64,6.67-10.79,13.55-17,19.97c-17.38,17.83-39.2,33.19-63.24,46.98c-4.16,2.39-8.32,4.74-12.56,7.08
		c4.12,14.62-1.77,30.8-15.36,39.2c-14.82,9.14-33.8,5.93-44.84-6.83c-1.65,0.86-3.29,1.77-4.9,2.64c-5.56,2.96-6.75,6.67-5.6,10.99
		c1.85,6.96,3.71,13.96,5.76,20.92c1.98,6.59-0.21,12.23-8.07,16.55c-22.81,12.52-45.66,24.99-68.51,37.47
		c-2.22,1.24-4.57,1.28-6.84,0.04c-22.77-12.43-45.54-24.87-68.22-37.34c-7.74-4.2-10.33-9.63-8.48-16.18
		c2.14-7.74,3.62-15.56,5.93-23.3c1.11-3.79-0.78-6.38-5.11-8.6c-2.35-1.19-4.69-2.43-7-3.62c-10.99,13.13-30.22,16.55-45.25,7.29
		c-13.75-8.48-19.6-24.95-15.23-39.73c-15.69-9.02-30.75-18.45-44.67-28.78c-17.33-12.85-33.43-26.31-43.93-42.37
		c-0.57-0.82-1.07-1.73-1.89-3.13c1.15,0.49,1.61,0.58,1.89,0.82c28.7,21.95,63.37,38.83,101.29,52.91
		c27.3,10.13,55.25,19.52,82.84,29.36c5.23,1.81,10.05,4.16,15.19,6.05c4.28,1.61,5.02,3.87,4.16,6.88
		c-2.3,8.15-4.53,16.35-6.34,24.58c-0.82,3.58-1.15,7.37-0.49,10.95c0.49,2.43,2.39,5.11,4.94,6.88c8.93,6.14,20.59,9.55,32.2,12.89
		c0.95,0.29,2.39,0.21,3.38-0.08c10.91-3.09,21.53-6.5,30.63-11.73c5.19-3.01,7.45-6.55,6.42-11.16
		c-2.51-11.16-4.69-22.36-7.21-33.52c-0.49-2.35,0.33-3.95,3.34-5.11c11.9-4.49,23.63-9.14,35.7-13.38
		c32.2-11.32,64.89-22.07,95.23-35.53c24.29-10.79,46.57-23.1,66.08-37.63c1.36-1.03,2.84-1.98,4.28-3.01L658.44,317.44z"/>
</g>
</svg>
