<?xml version="1.0" encoding="utf-8"?>
<!-- Generator: Adobe Illustrator 27.3.1, SVG Export Plug-In . SVG Version: 6.00 Build 0)  -->
<svg version="1.1" id="Layer_1" xmlns="http://www.w3.org/2000/svg" xmlns:xlink="http://www.w3.org/1999/xlink" x="0px" y="0px"
	 viewBox="0 0 841.89 595.28" style="enable-background:new 0 0 841.89 595.28;" xml:space="preserve">
<style type="text/css">
	.st0{fill:#FFFFFF;}
	.st1{fill:#2C5C6E;}
	.st2{fill:#FBD600;}
</style>
<g>
	<g>
		<g>
			<g>
				<g>
					<path d="M568.56,199.99c-0.25,2.18-0.53,4.35-0.81,6.5c-0.4,3.06-2.45,5.64-5.34,6.7c-34.14,12.77-87.01,20.97-146.37,20.97
						c-53.52,0-101.78-6.68-135.8-17.35c-3.03-0.96-5.29-3.59-5.72-6.78v-0.05c-0.99-7.28-1.72-14.59-2.33-21.68
						c-1.29-14.59-1.42-29.26-0.4-43.86v-0.2c0.3-4.3,0.56-8.47,0.83-12.62c0.15-2.35,0.89-3.67,3.47-4
						c23.27-2.93,45.32-10.37,66.82-19.25c23.7-9.79,46.99-20.56,70.39-31.14c5.21-2.35,9.84-2.5,15,0.03
						c29.44,14.44,59.31,27.9,90.37,38.6c15.25,5.24,30.71,9.94,46.82,11.76c2.91,0.3,3.29,2.02,3.57,4.35
						c0.58,5.41,1.04,10.83,1.32,16.24C571.27,165.5,570.56,182.77,568.56,199.99z"/>
					<path d="M566.84,220.1c-3.47,4.1-6.63,8.32-10.45,12.27c-10.67,10.95-24.08,20.39-38.85,28.86c-2.55,1.47-5.11,2.91-7.71,4.35
						c2.53,8.98-1.09,18.92-9.43,24.08c-9.11,5.61-20.77,3.64-27.54-4.2c-1.01,0.53-2.02,1.09-3.01,1.62
						c-3.41,1.82-4.15,4.1-3.44,6.75c1.14,4.27,2.28,8.57,3.54,12.85c1.21,4.05-0.13,7.51-4.96,10.17
						c-14.01,7.69-28.05,15.35-42.09,23.02c-1.37,0.76-2.81,0.78-4.2,0.03c-13.99-7.64-27.97-15.28-41.91-22.94
						c-4.75-2.58-6.35-5.92-5.21-9.94c1.32-4.75,2.23-9.56,3.64-14.32c0.68-2.33-0.48-3.92-3.14-5.29c-1.44-0.73-2.88-1.49-4.3-2.23
						c-6.75,8.07-18.56,10.17-27.8,4.48c-8.45-5.21-12.04-15.33-9.36-24.41c-9.64-5.54-18.89-11.33-27.44-17.68
						c-10.65-7.89-20.54-16.16-26.99-26.03c-0.35-0.51-0.66-1.06-1.16-1.92c0.71,0.3,0.99,0.35,1.16,0.51
						c17.63,13.48,38.93,23.85,62.22,32.5c16.77,6.22,33.94,11.99,50.89,18.03c3.21,1.11,6.17,2.55,9.33,3.72
						c2.63,0.99,3.08,2.38,2.55,4.22c-1.42,5.01-2.78,10.04-3.9,15.1c-0.51,2.2-0.71,4.53-0.3,6.73c0.3,1.49,1.47,3.14,3.03,4.22
						c5.49,3.77,12.65,5.87,19.78,7.92c0.58,0.18,1.47,0.13,2.07-0.05c6.7-1.9,13.23-4,18.82-7.21c3.19-1.85,4.58-4.02,3.95-6.85
						c-1.54-6.85-2.88-13.73-4.43-20.59c-0.3-1.44,0.2-2.43,2.05-3.14c7.31-2.76,14.52-5.61,21.93-8.22
						c19.78-6.96,39.86-13.56,58.5-21.83c14.92-6.63,28.61-14.19,40.6-23.12c0.83-0.63,1.75-1.21,2.63-1.85L566.84,220.1z"/>
					<path d="M324.14,371.68h-34.98l-72.99,106.3h38.44l9.21-14.16h36.95l1.8,14.16h37.56L324.14,371.68z M279.5,438.78l16.44-25.65
						l2.86,25.65H279.5z"/>
					<polygon points="581.61,397.15 521.29,449.02 567.58,449.02 559.89,477.98 464.43,477.98 471.06,453.25 531.23,401.37 
						486.74,401.37 494.58,372.41 588.24,372.41 					"/>
					<polygon points="597.02,443.18 595.73,448.06 619.15,448.06 616.06,459.62 592.64,459.62 591.2,464.83 616.7,464.83 
						613.21,477.98 571.95,477.98 584.83,430.03 625.72,430.03 622.18,443.18 					"/>
					<polygon points="381.48,442.8 392.98,424.74 381.48,407.62 422.8,425.1 					"/>
				</g>
				<g>
					<path d="M568.56,199.99c-0.25,2.18-0.53,4.35-0.81,6.5c-0.4,3.06-2.45,5.64-5.34,6.7c-34.14,12.77-87.01,20.97-146.37,20.97
						c-53.52,0-101.78-6.68-135.8-17.35c-3.03-0.96-5.29-3.59-5.72-6.78v-0.05c-0.99-7.28-1.72-14.59-2.33-21.68
						c-1.29-14.59-1.42-29.26-0.4-43.86v-0.2c0.3-4.3,0.56-8.47,0.83-12.62c0.15-2.35,0.89-3.67,3.47-4
						c23.27-2.93,45.32-10.37,66.82-19.25c23.7-9.79,46.99-20.56,70.39-31.14c5.21-2.35,9.84-2.5,15,0.03
						c29.44,14.44,59.31,27.9,90.37,38.6c15.25,5.24,30.71,9.94,46.82,11.76c2.91,0.3,3.29,2.02,3.57,4.35
						c0.58,5.41,1.04,10.83,1.32,16.24C571.27,165.5,570.56,182.77,568.56,199.99z"/>
					<path d="M566.84,220.1c-3.47,4.1-6.63,8.32-10.45,12.27c-10.67,10.95-24.08,20.39-38.85,28.86c-2.55,1.47-5.11,2.91-7.71,4.35
						c2.53,8.98-1.09,18.92-9.43,24.08c-9.11,5.61-20.77,3.64-27.54-4.2c-1.01,0.53-2.02,1.09-3.01,1.62
						c-3.41,1.82-4.15,4.1-3.44,6.75c1.14,4.27,2.28,8.57,3.54,12.85c1.21,4.05-0.13,7.51-4.96,10.17
						c-14.01,7.69-28.05,15.35-42.09,23.02c-1.37,0.76-2.81,0.78-4.2,0.03c-13.99-7.64-27.97-15.28-41.91-22.94
						c-4.75-2.58-6.35-5.92-5.21-9.94c1.32-4.75,2.23-9.56,3.64-14.32c0.68-2.33-0.48-3.92-3.14-5.29c-1.44-0.73-2.88-1.49-4.3-2.23
						c-6.75,8.07-18.56,10.17-27.8,4.48c-8.45-5.21-12.04-15.33-9.36-24.41c-9.64-5.54-18.89-11.33-27.44-17.68
						c-10.65-7.89-20.54-16.16-26.99-26.03c-0.35-0.51-0.66-1.06-1.16-1.92c0.71,0.3,0.99,0.35,1.16,0.51
						c17.63,13.48,38.93,23.85,62.22,32.5c16.77,6.22,33.94,11.99,50.89,18.03c3.21,1.11,6.17,2.55,9.33,3.72
						c2.63,0.99,3.08,2.38,2.55,4.22c-1.42,5.01-2.78,10.04-3.9,15.1c-0.51,2.2-0.71,4.53-0.3,6.73c0.3,1.49,1.47,3.14,3.03,4.22
						c5.49,3.77,12.65,5.87,19.78,7.92c0.58,0.18,1.47,0.13,2.07-0.05c6.7-1.9,13.23-4,18.82-7.21c3.19-1.85,4.58-4.02,3.95-6.85
						c-1.54-6.85-2.88-13.73-4.43-20.59c-0.3-1.44,0.2-2.43,2.05-3.14c7.31-2.76,14.52-5.61,21.93-8.22
						c19.78-6.96,39.86-13.56,58.5-21.83c14.92-6.63,28.61-14.19,40.6-23.12c0.83-0.63,1.75-1.21,2.63-1.85L566.84,220.1z"/>
					<path d="M324.14,371.68h-34.98l-72.99,106.3h38.44l9.21-14.16h36.95l1.8,14.16h37.56L324.14,371.68z M279.5,438.78l16.44-25.65
						l2.86,25.65H279.5z"/>
					<polygon points="581.61,397.15 521.29,449.02 567.58,449.02 559.89,477.98 464.43,477.98 471.06,453.25 531.23,401.37 
						486.74,401.37 494.58,372.41 588.24,372.41 					"/>
					<polygon points="597.02,443.18 595.73,448.06 619.15,448.06 616.06,459.62 592.64,459.62 591.2,464.83 616.7,464.83 
						613.21,477.98 571.95,477.98 584.83,430.03 625.72,430.03 622.18,443.18 					"/>
					<polygon points="381.48,442.8 392.98,424.74 381.48,407.62 422.8,425.1 					"/>
				</g>
				<g>
					<path d="M568.56,199.99c-0.25,2.18-0.53,4.35-0.81,6.5c-0.4,3.06-2.45,5.64-5.34,6.7c-34.14,12.77-87.01,20.97-146.37,20.97
						c-53.52,0-101.78-6.68-135.8-17.35c-3.03-0.96-5.29-3.59-5.72-6.78v-0.05c-0.99-7.28-1.72-14.59-2.33-21.68
						c-1.29-14.59-1.42-29.26-0.4-43.86v-0.2c0.3-4.3,0.56-8.47,0.83-12.62c0.15-2.35,0.89-3.67,3.47-4
						c23.27-2.93,45.32-10.37,66.82-19.25c23.7-9.79,46.99-20.56,70.39-31.14c5.21-2.35,9.84-2.5,15,0.03
						c29.44,14.44,59.31,27.9,90.37,38.6c15.25,5.24,30.71,9.94,46.82,11.76c2.91,0.3,3.29,2.02,3.57,4.35
						c0.58,5.41,1.04,10.83,1.32,16.24C571.27,165.5,570.56,182.77,568.56,199.99z"/>
					<path d="M566.84,220.1c-3.47,4.1-6.63,8.32-10.45,12.27c-10.67,10.95-24.08,20.39-38.85,28.86c-2.55,1.47-5.11,2.91-7.71,4.35
						c2.53,8.98-1.09,18.92-9.43,24.08c-9.11,5.61-20.77,3.64-27.54-4.2c-1.01,0.53-2.02,1.09-3.01,1.62
						c-3.41,1.82-4.15,4.1-3.44,6.75c1.14,4.27,2.28,8.57,3.54,12.85c1.21,4.05-0.13,7.51-4.96,10.17
						c-14.01,7.69-28.05,15.35-42.09,23.02c-1.37,0.76-2.81,0.78-4.2,0.03c-13.99-7.64-27.97-15.28-41.91-22.94
						c-4.75-2.58-6.35-5.92-5.21-9.94c1.32-4.75,2.23-9.56,3.64-14.32c0.68-2.33-0.48-3.92-3.14-5.29c-1.44-0.73-2.88-1.49-4.3-2.23
						c-6.75,8.07-18.56,10.17-27.8,4.48c-8.45-5.21-12.04-15.33-9.36-24.41c-9.64-5.54-18.89-11.33-27.44-17.68
						c-10.65-7.89-20.54-16.16-26.99-26.03c-0.35-0.51-0.66-1.06-1.16-1.92c0.71,0.3,0.99,0.35,1.16,0.51
						c17.63,13.48,38.93,23.85,62.22,32.5c16.77,6.22,33.94,11.99,50.89,18.03c3.21,1.11,6.17,2.55,9.33,3.72
						c2.63,0.99,3.08,2.38,2.55,4.22c-1.42,5.01-2.78,10.04-3.9,15.1c-0.51,2.2-0.71,4.53-0.3,6.73c0.3,1.49,1.47,3.14,3.03,4.22
						c5.49,3.77,12.65,5.87,19.78,7.92c0.58,0.18,1.47,0.13,2.07-0.05c6.7-1.9,13.23-4,18.82-7.21c3.19-1.85,4.58-4.02,3.95-6.85
						c-1.54-6.85-2.88-13.73-4.43-20.59c-0.3-1.44,0.2-2.43,2.05-3.14c7.31-2.76,14.52-5.61,21.93-8.22
						c19.78-6.96,39.86-13.56,58.5-21.83c14.92-6.63,28.61-14.19,40.6-23.12c0.83-0.63,1.75-1.21,2.63-1.85L566.84,220.1z"/>
					<path d="M324.14,371.68h-34.98l-72.99,106.3h38.44l9.21-14.16h36.95l1.8,14.16h37.56L324.14,371.68z M279.5,438.78l16.44-25.65
						l2.86,25.65H279.5z"/>
					<polygon points="581.61,397.15 521.29,449.02 567.58,449.02 559.89,477.98 464.43,477.98 471.06,453.25 531.23,401.37 
						486.74,401.37 494.58,372.41 588.24,372.41 					"/>
					<polygon points="597.02,443.18 595.73,448.06 619.15,448.06 616.06,459.62 592.64,459.62 591.2,464.83 616.7,464.83 
						613.21,477.98 571.95,477.98 584.83,430.03 625.72,430.03 622.18,443.18 					"/>
					<polygon points="381.48,442.8 392.98,424.74 381.48,407.62 422.8,425.1 					"/>
				</g>
			</g>
			<g>
				<g>
					<path d="M218.59,505.27v2.33h0.3v-2.33H218.59z M218.59,505.27v2.33h0.3v-2.33H218.59z"/>
					<polygon points="234.5,517.24 234.5,519.62 216.17,519.62 216.17,493.67 233.95,493.67 233.95,496.04 218.9,496.04 
						218.9,505.27 218.59,505.27 218.59,507.6 218.9,507.6 218.9,517.24 					"/>
					<path d="M273.25,514.71v1.49h1.19L273.25,514.71z M257.01,498.57v-1.49h-1.19L257.01,498.57z"/>
					<polygon points="275.96,493.67 275.96,519.62 273.68,519.62 257.01,498.57 257.01,497.08 255.82,497.08 257.01,498.57 
						257.01,519.62 254.28,519.62 254.28,493.67 256.53,493.67 273.25,514.71 273.25,516.2 274.44,516.2 273.25,514.71 
						273.25,493.67 					"/>
					<path d="M315.99,506.64h2.63v9.89c-1.24,1.09-2.68,1.92-4.32,2.48c-1.67,0.56-3.39,0.83-5.18,0.83c-1.97,0-3.79-0.33-5.46-0.99
						c-1.67-0.66-3.11-1.59-4.35-2.76c-1.21-1.19-2.17-2.58-2.86-4.2c-0.66-1.59-1.01-3.36-1.01-5.26s0.35-3.64,1.01-5.26
						c0.68-1.59,1.65-3.01,2.88-4.17c1.24-1.19,2.68-2.12,4.35-2.78c1.67-0.63,3.49-0.96,5.46-0.96c1.97,0,3.79,0.3,5.44,0.91
						c1.64,0.63,3.04,1.57,4.2,2.83l-1.69,1.72c-1.09-1.09-2.3-1.85-3.59-2.33c-1.32-0.46-2.73-0.71-4.22-0.71
						c-1.62,0-3.09,0.28-4.43,0.81c-1.37,0.53-2.53,1.29-3.54,2.25c-0.99,0.99-1.77,2.12-2.33,3.41c-0.56,1.29-0.83,2.73-0.83,4.27
						s0.28,2.96,0.83,4.27c0.56,1.29,1.34,2.43,2.33,3.41c1.01,0.99,2.18,1.72,3.54,2.25c1.34,0.53,2.81,0.81,4.38,0.81
						c1.49,0,2.88-0.23,4.2-0.66c0.91-0.3,1.77-0.76,2.58-1.39V506.64z"/>
					<rect x="339.72" y="493.67" width="2.73" height="25.95"/>
					<rect x="218.9" y="505.27" width="13.41" height="2.33"/>
					<polygon points="385.9,493.67 385.9,519.62 383.65,519.62 366.98,498.57 366.98,519.62 364.23,519.62 364.23,493.67 
						366.5,493.67 383.2,514.71 383.2,493.67 					"/>
					<polygon points="426.02,517.24 426.02,519.62 407.68,519.62 407.68,493.67 425.46,493.67 425.46,496.04 410.44,496.04 
						410.44,505.27 423.84,505.27 423.84,507.6 410.44,507.6 410.44,517.24 					"/>
					<polygon points="464.16,517.24 464.16,519.62 445.82,519.62 445.82,493.67 463.6,493.67 463.6,496.04 448.55,496.04 
						448.55,505.27 461.96,505.27 461.96,507.6 448.55,507.6 448.55,517.24 					"/>
					<path d="M498.28,510.71c0.35-0.1,0.71-0.23,1.04-0.38c1.57-0.71,2.78-1.72,3.64-3.03c0.86-1.32,1.26-2.91,1.26-4.73
						c0-1.87-0.41-3.46-1.26-4.81c-0.86-1.32-2.07-2.33-3.64-3.03c-1.59-0.71-3.49-1.06-5.69-1.06h-9.69v25.95h2.73v-8.22h6.96
						c0.73,0,1.42-0.05,2.07-0.15l5.94,8.37h2.98L498.28,510.71z M486.67,510.36l-0.1-0.13l0.1-0.1V510.36z M493.57,509.04h-6.9v-13
						h6.9c2.58,0,4.55,0.58,5.89,1.72c1.34,1.11,2.02,2.73,2.02,4.81c0,2.05-0.68,3.64-2.02,4.78
						C498.13,508.49,496.15,509.04,493.57,509.04z"/>
					<rect x="524.05" y="493.67" width="2.73" height="25.95"/>
					<path d="M567.55,514.73v1.47h1.16L567.55,514.73z M551.31,498.57v-1.49h-1.19L551.31,498.57z"/>
					<polygon points="570.26,493.67 570.26,519.62 567.98,519.62 551.31,498.57 551.31,497.08 550.13,497.08 551.31,498.57 
						551.31,519.62 548.58,519.62 548.58,493.67 550.83,493.67 567.55,514.73 567.55,516.2 568.72,516.2 567.55,514.73 
						567.55,493.67 					"/>
					<path d="M611.36,514.46c-0.35,0.33-0.68,0.63-1.06,0.89v0.86l2.63,0.33L611.36,514.46z M611.36,514.46
						c-0.35,0.33-0.68,0.63-1.06,0.89v0.86l2.63,0.33L611.36,514.46z"/>
					<path d="M612.93,506.64v9.89l-1.57-2.07c-0.35,0.33-0.68,0.63-1.06,0.89v-8.7H612.93z"/>
					<path d="M610.3,516.2l2.63,0.33c-1.24,1.09-2.68,1.92-4.35,2.48c-1.64,0.56-3.36,0.83-5.18,0.83c-1.97,0-3.79-0.33-5.46-0.99
						c-1.67-0.66-3.11-1.59-4.32-2.76c-1.21-1.19-2.18-2.58-2.86-4.2c-0.68-1.59-1.01-3.36-1.01-5.26s0.33-3.64,1.01-5.26
						c0.68-1.59,1.64-3.01,2.88-4.17c1.24-1.19,2.68-2.12,4.35-2.78c1.67-0.63,3.49-0.96,5.46-0.96c1.97,0,3.79,0.3,5.41,0.91
						c1.64,0.63,3.06,1.57,4.22,2.83l-1.72,1.72c-1.09-1.09-2.28-1.85-3.59-2.33c-1.31-0.46-2.71-0.71-4.22-0.71
						c-1.59,0-3.08,0.28-4.43,0.81c-1.34,0.53-2.5,1.29-3.51,2.25c-0.99,0.99-1.77,2.12-2.33,3.41c-0.56,1.29-0.83,2.73-0.83,4.27
						s0.28,2.96,0.83,4.27c0.56,1.29,1.34,2.43,2.33,3.41c1.01,0.99,2.17,1.72,3.51,2.25c1.34,0.53,2.81,0.81,4.4,0.81
						c1.47,0,2.88-0.23,4.2-0.66c0.91-0.3,1.77-0.78,2.58-1.39V516.2z"/>
				</g>
				<g>
					<path d="M218.59,505.27v2.33h0.3v-2.33H218.59z M218.59,505.27v2.33h0.3v-2.33H218.59z"/>
					<polygon points="234.5,517.24 234.5,519.62 216.17,519.62 216.17,493.67 233.95,493.67 233.95,496.04 218.9,496.04 
						218.9,505.27 218.59,505.27 218.59,507.6 218.9,507.6 218.9,517.24 					"/>
					<path d="M273.25,514.71v1.49h1.19L273.25,514.71z M257.01,498.57v-1.49h-1.19L257.01,498.57z"/>
					<polygon points="275.96,493.67 275.96,519.62 273.68,519.62 257.01,498.57 257.01,497.08 255.82,497.08 257.01,498.57 
						257.01,519.62 254.28,519.62 254.28,493.67 256.53,493.67 273.25,514.71 273.25,516.2 274.44,516.2 273.25,514.71 
						273.25,493.67 					"/>
					<path d="M315.99,506.64h2.63v9.89c-1.24,1.09-2.68,1.92-4.32,2.48c-1.67,0.56-3.39,0.83-5.18,0.83c-1.97,0-3.79-0.33-5.46-0.99
						c-1.67-0.66-3.11-1.59-4.35-2.76c-1.21-1.19-2.17-2.58-2.86-4.2c-0.66-1.59-1.01-3.36-1.01-5.26s0.35-3.64,1.01-5.26
						c0.68-1.59,1.65-3.01,2.88-4.17c1.24-1.19,2.68-2.12,4.35-2.78c1.67-0.63,3.49-0.96,5.46-0.96c1.97,0,3.79,0.3,5.44,0.91
						c1.64,0.63,3.04,1.57,4.2,2.83l-1.69,1.72c-1.09-1.09-2.3-1.85-3.59-2.33c-1.32-0.46-2.73-0.71-4.22-0.71
						c-1.62,0-3.09,0.28-4.43,0.81c-1.37,0.53-2.53,1.29-3.54,2.25c-0.99,0.99-1.77,2.12-2.33,3.41c-0.56,1.29-0.83,2.73-0.83,4.27
						s0.28,2.96,0.83,4.27c0.56,1.29,1.34,2.43,2.33,3.41c1.01,0.99,2.18,1.72,3.54,2.25c1.34,0.53,2.81,0.81,4.38,0.81
						c1.49,0,2.88-0.23,4.2-0.66c0.91-0.3,1.77-0.76,2.58-1.39V506.64z"/>
					<rect x="339.72" y="493.67" width="2.73" height="25.95"/>
					<rect x="218.9" y="505.27" width="13.41" height="2.33"/>
					<polygon points="385.9,493.67 385.9,519.62 383.65,519.62 366.98,498.57 366.98,519.62 364.23,519.62 364.23,493.67 
						366.5,493.67 383.2,514.71 383.2,493.67 					"/>
					<polygon points="426.02,517.24 426.02,519.62 407.68,519.62 407.68,493.67 425.46,493.67 425.46,496.04 410.44,496.04 
						410.44,505.27 423.84,505.27 423.84,507.6 410.44,507.6 410.44,517.24 					"/>
					<polygon points="464.16,517.24 464.16,519.62 445.82,519.62 445.82,493.67 463.6,493.67 463.6,496.04 448.55,496.04 
						448.55,505.27 461.96,505.27 461.96,507.6 448.55,507.6 448.55,517.24 					"/>
					<path d="M498.28,510.71c0.35-0.1,0.71-0.23,1.04-0.38c1.57-0.71,2.78-1.72,3.64-3.03c0.86-1.32,1.26-2.91,1.26-4.73
						c0-1.87-0.41-3.46-1.26-4.81c-0.86-1.32-2.07-2.33-3.64-3.03c-1.59-0.71-3.49-1.06-5.69-1.06h-9.69v25.95h2.73v-8.22h6.96
						c0.73,0,1.42-0.05,2.07-0.15l5.94,8.37h2.98L498.28,510.71z M486.67,510.36l-0.1-0.13l0.1-0.1V510.36z M493.57,509.04h-6.9v-13
						h6.9c2.58,0,4.55,0.58,5.89,1.72c1.34,1.11,2.02,2.73,2.02,4.81c0,2.05-0.68,3.64-2.02,4.78
						C498.13,508.49,496.15,509.04,493.57,509.04z"/>
					<rect x="524.05" y="493.67" width="2.73" height="25.95"/>
					<path d="M567.55,514.73v1.47h1.16L567.55,514.73z M551.31,498.57v-1.49h-1.19L551.31,498.57z"/>
					<polygon points="570.26,493.67 570.26,519.62 567.98,519.62 551.31,498.57 551.31,497.08 550.13,497.08 551.31,498.57 
						551.31,519.62 548.58,519.62 548.58,493.67 550.83,493.67 567.55,514.73 567.55,516.2 568.72,516.2 567.55,514.73 
						567.55,493.67 					"/>
					<path d="M611.36,514.46c-0.35,0.33-0.68,0.63-1.06,0.89v0.86l2.63,0.33L611.36,514.46z M611.36,514.46
						c-0.35,0.33-0.68,0.63-1.06,0.89v0.86l2.63,0.33L611.36,514.46z"/>
					<path d="M612.93,506.64v9.89l-1.57-2.07c-0.35,0.33-0.68,0.63-1.06,0.89v-8.7H612.93z"/>
					<path d="M610.3,516.2l2.63,0.33c-1.24,1.09-2.68,1.92-4.35,2.48c-1.64,0.56-3.36,0.83-5.18,0.83c-1.97,0-3.79-0.33-5.46-0.99
						c-1.67-0.66-3.11-1.59-4.32-2.76c-1.21-1.19-2.18-2.58-2.86-4.2c-0.68-1.59-1.01-3.36-1.01-5.26s0.33-3.64,1.01-5.26
						c0.68-1.59,1.64-3.01,2.88-4.17c1.24-1.19,2.68-2.12,4.35-2.78c1.67-0.63,3.49-0.96,5.46-0.96c1.97,0,3.79,0.3,5.41,0.91
						c1.64,0.63,3.06,1.57,4.22,2.83l-1.72,1.72c-1.09-1.09-2.28-1.85-3.59-2.33c-1.31-0.46-2.71-0.71-4.22-0.71
						c-1.59,0-3.08,0.28-4.43,0.81c-1.34,0.53-2.5,1.29-3.51,2.25c-0.99,0.99-1.77,2.12-2.33,3.41c-0.56,1.29-0.83,2.73-0.83,4.27
						s0.28,2.96,0.83,4.27c0.56,1.29,1.34,2.43,2.33,3.41c1.01,0.99,2.17,1.72,3.51,2.25c1.34,0.53,2.81,0.81,4.4,0.81
						c1.47,0,2.88-0.23,4.2-0.66c0.91-0.3,1.77-0.78,2.58-1.39V516.2z"/>
				</g>
				<g>
					<path d="M218.59,505.27v2.33h0.3v-2.33H218.59z M218.59,505.27v2.33h0.3v-2.33H218.59z"/>
					<polygon points="234.5,517.24 234.5,519.62 216.17,519.62 216.17,493.67 233.95,493.67 233.95,496.04 218.9,496.04 
						218.9,505.27 218.59,505.27 218.59,507.6 218.9,507.6 218.9,517.24 					"/>
					<path d="M273.25,514.71v1.49h1.19L273.25,514.71z M257.01,498.57v-1.49h-1.19L257.01,498.57z"/>
					<polygon points="275.96,493.67 275.96,519.62 273.68,519.62 257.01,498.57 257.01,497.08 255.82,497.08 257.01,498.57 
						257.01,519.62 254.28,519.62 254.28,493.67 256.53,493.67 273.25,514.71 273.25,516.2 274.44,516.2 273.25,514.71 
						273.25,493.67 					"/>
					<path d="M315.99,506.64h2.63v9.89c-1.24,1.09-2.68,1.92-4.32,2.48c-1.67,0.56-3.39,0.83-5.18,0.83c-1.97,0-3.79-0.33-5.46-0.99
						c-1.67-0.66-3.11-1.59-4.35-2.76c-1.21-1.19-2.17-2.58-2.86-4.2c-0.66-1.59-1.01-3.36-1.01-5.26s0.35-3.64,1.01-5.26
						c0.68-1.59,1.65-3.01,2.88-4.17c1.24-1.19,2.68-2.12,4.35-2.78c1.67-0.63,3.49-0.96,5.46-0.96c1.97,0,3.79,0.3,5.44,0.91
						c1.64,0.63,3.04,1.57,4.2,2.83l-1.69,1.72c-1.09-1.09-2.3-1.85-3.59-2.33c-1.32-0.46-2.73-0.71-4.22-0.71
						c-1.62,0-3.09,0.28-4.43,0.81c-1.37,0.53-2.53,1.29-3.54,2.25c-0.99,0.99-1.77,2.12-2.33,3.41c-0.56,1.29-0.83,2.73-0.83,4.27
						s0.28,2.96,0.83,4.27c0.56,1.29,1.34,2.43,2.33,3.41c1.01,0.99,2.18,1.72,3.54,2.25c1.34,0.53,2.81,0.81,4.38,0.81
						c1.49,0,2.88-0.23,4.2-0.66c0.91-0.3,1.77-0.76,2.58-1.39V506.64z"/>
					<rect x="339.72" y="493.67" width="2.73" height="25.95"/>
					<rect x="218.9" y="505.27" width="13.41" height="2.33"/>
					<polygon points="385.9,493.67 385.9,519.62 383.65,519.62 366.98,498.57 366.98,519.62 364.23,519.62 364.23,493.67 
						366.5,493.67 383.2,514.71 383.2,493.67 					"/>
					<polygon points="426.02,517.24 426.02,519.62 407.68,519.62 407.68,493.67 425.46,493.67 425.46,496.04 410.44,496.04 
						410.44,505.27 423.84,505.27 423.84,507.6 410.44,507.6 410.44,517.24 					"/>
					<polygon points="464.16,517.24 464.16,519.62 445.82,519.62 445.82,493.67 463.6,493.67 463.6,496.04 448.55,496.04 
						448.55,505.27 461.96,505.27 461.96,507.6 448.55,507.6 448.55,517.24 					"/>
					<path d="M498.28,510.71c0.35-0.1,0.71-0.23,1.04-0.38c1.57-0.71,2.78-1.72,3.64-3.03c0.86-1.32,1.26-2.91,1.26-4.73
						c0-1.87-0.41-3.46-1.26-4.81c-0.86-1.32-2.07-2.33-3.64-3.03c-1.59-0.71-3.49-1.06-5.69-1.06h-9.69v25.95h2.73v-8.22h6.96
						c0.73,0,1.42-0.05,2.07-0.15l5.94,8.37h2.98L498.28,510.71z M486.67,510.36l-0.1-0.13l0.1-0.1V510.36z M493.57,509.04h-6.9v-13
						h6.9c2.58,0,4.55,0.58,5.89,1.72c1.34,1.11,2.02,2.73,2.02,4.81c0,2.05-0.68,3.64-2.02,4.78
						C498.13,508.49,496.15,509.04,493.57,509.04z"/>
					<rect x="524.05" y="493.67" width="2.73" height="25.95"/>
					<path d="M567.55,514.73v1.47h1.16L567.55,514.73z M551.31,498.57v-1.49h-1.19L551.31,498.57z"/>
					<polygon points="570.26,493.67 570.26,519.62 567.98,519.62 551.31,498.57 551.31,497.08 550.13,497.08 551.31,498.57 
						551.31,519.62 548.58,519.62 548.58,493.67 550.83,493.67 567.55,514.73 567.55,516.2 568.72,516.2 567.55,514.73 
						567.55,493.67 					"/>
					<path d="M611.36,514.46c-0.35,0.33-0.68,0.63-1.06,0.89v0.86l2.63,0.33L611.36,514.46z M611.36,514.46
						c-0.35,0.33-0.68,0.63-1.06,0.89v0.86l2.63,0.33L611.36,514.46z"/>
					<path d="M612.93,506.64v9.89l-1.57-2.07c-0.35,0.33-0.68,0.63-1.06,0.89v-8.7H612.93z"/>
					<path d="M610.3,516.2l2.63,0.33c-1.24,1.09-2.68,1.92-4.35,2.48c-1.64,0.56-3.36,0.83-5.18,0.83c-1.97,0-3.79-0.33-5.46-0.99
						c-1.67-0.66-3.11-1.59-4.32-2.76c-1.21-1.19-2.18-2.58-2.86-4.2c-0.68-1.59-1.01-3.36-1.01-5.26s0.33-3.64,1.01-5.26
						c0.68-1.59,1.64-3.01,2.88-4.17c1.24-1.19,2.68-2.12,4.35-2.78c1.67-0.63,3.49-0.96,5.46-0.96c1.97,0,3.79,0.3,5.41,0.91
						c1.64,0.63,3.06,1.57,4.22,2.83l-1.72,1.72c-1.09-1.09-2.28-1.85-3.59-2.33c-1.31-0.46-2.71-0.71-4.22-0.71
						c-1.59,0-3.08,0.28-4.43,0.81c-1.34,0.53-2.5,1.29-3.51,2.25c-0.99,0.99-1.77,2.12-2.33,3.41c-0.56,1.29-0.83,2.73-0.83,4.27
						s0.28,2.96,0.83,4.27c0.56,1.29,1.34,2.43,2.33,3.41c1.01,0.99,2.17,1.72,3.51,2.25c1.34,0.53,2.81,0.81,4.4,0.81
						c1.47,0,2.88-0.23,4.2-0.66c0.91-0.3,1.77-0.78,2.58-1.39V516.2z"/>
				</g>
			</g>
		</g>
	</g>
	<g>
		<g>
			<g>
				<g>
					<path class="st0" d="M568.56,199.99c-0.25,2.18-0.53,4.35-0.81,6.5c-0.4,3.06-2.45,5.64-5.34,6.7
						c-34.14,12.77-87.01,20.97-146.37,20.97c-53.52,0-101.78-6.68-135.8-17.35c-3.03-0.96-5.29-3.59-5.72-6.78v-0.05
						c-0.99-7.28-1.72-14.59-2.33-21.68c-1.29-14.59-1.42-29.26-0.4-43.86v-0.2c0.3-4.3,0.56-8.47,0.83-12.62
						c0.15-2.35,0.89-3.67,3.47-4c23.27-2.93,45.32-10.37,66.82-19.25c23.7-9.79,46.99-20.56,70.39-31.14
						c5.21-2.35,9.84-2.5,15,0.03c29.44,14.44,59.31,27.9,90.37,38.6c15.25,5.24,30.71,9.94,46.82,11.76
						c2.91,0.3,3.29,2.02,3.57,4.35c0.58,5.41,1.04,10.83,1.32,16.24C571.27,165.5,570.56,182.77,568.56,199.99z"/>
					<path class="st0" d="M566.84,220.1c-3.47,4.1-6.63,8.32-10.45,12.27c-10.67,10.95-24.08,20.39-38.85,28.86
						c-2.55,1.47-5.11,2.91-7.71,4.35c2.53,8.98-1.09,18.92-9.43,24.08c-9.11,5.61-20.77,3.64-27.54-4.2
						c-1.01,0.53-2.02,1.09-3.01,1.62c-3.41,1.82-4.15,4.1-3.44,6.75c1.14,4.27,2.28,8.57,3.54,12.85
						c1.21,4.05-0.13,7.51-4.96,10.17c-14.01,7.69-28.05,15.35-42.09,23.02c-1.37,0.76-2.81,0.78-4.2,0.03
						c-13.99-7.64-27.97-15.28-41.91-22.94c-4.75-2.58-6.35-5.92-5.21-9.94c1.32-4.75,2.23-9.56,3.64-14.32
						c0.68-2.33-0.48-3.92-3.14-5.29c-1.44-0.73-2.88-1.49-4.3-2.23c-6.75,8.07-18.56,10.17-27.8,4.48
						c-8.45-5.21-12.04-15.33-9.36-24.41c-9.64-5.54-18.89-11.33-27.44-17.68c-10.65-7.89-20.54-16.16-26.99-26.03
						c-0.35-0.51-0.66-1.06-1.16-1.92c0.71,0.3,0.99,0.35,1.16,0.51c17.63,13.48,38.93,23.85,62.22,32.5
						c16.77,6.22,33.94,11.99,50.89,18.03c3.21,1.11,6.17,2.55,9.33,3.72c2.63,0.99,3.08,2.38,2.55,4.22
						c-1.42,5.01-2.78,10.04-3.9,15.1c-0.51,2.2-0.71,4.53-0.3,6.73c0.3,1.49,1.47,3.14,3.03,4.22c5.49,3.77,12.65,5.87,19.78,7.92
						c0.58,0.18,1.47,0.13,2.07-0.05c6.7-1.9,13.23-4,18.82-7.21c3.19-1.85,4.58-4.02,3.95-6.85c-1.54-6.85-2.88-13.73-4.43-20.59
						c-0.3-1.44,0.2-2.43,2.05-3.14c7.31-2.76,14.52-5.61,21.93-8.22c19.78-6.96,39.86-13.56,58.5-21.83
						c14.92-6.63,28.61-14.19,40.6-23.12c0.83-0.63,1.75-1.21,2.63-1.85L566.84,220.1z"/>
					<path class="st0" d="M324.14,371.68h-34.98l-72.99,106.3h38.44l9.21-14.16h36.95l1.8,14.16h37.56L324.14,371.68z M279.5,438.78
						l16.44-25.65l2.86,25.65H279.5z"/>
					<polygon class="st0" points="581.61,397.15 521.29,449.02 567.58,449.02 559.89,477.98 464.43,477.98 471.06,453.25 
						531.23,401.37 486.74,401.37 494.58,372.41 588.24,372.41 					"/>
					<polygon class="st0" points="597.02,443.18 595.73,448.06 619.15,448.06 616.06,459.62 592.64,459.62 591.2,464.83 
						616.7,464.83 613.21,477.98 571.95,477.98 584.83,430.03 625.72,430.03 622.18,443.18 					"/>
					<polygon class="st0" points="381.48,442.8 392.98,424.74 381.48,407.62 422.8,425.1 					"/>
				</g>
				<g>
					<path d="M568.56,199.99c-0.25,2.18-0.53,4.35-0.81,6.5c-0.4,3.06-2.45,5.64-5.34,6.7c-34.14,12.77-87.01,20.97-146.37,20.97
						c-53.52,0-101.78-6.68-135.8-17.35c-3.03-0.96-5.29-3.59-5.72-6.78v-0.05c-0.99-7.28-1.72-14.59-2.33-21.68
						c-1.29-14.59-1.42-29.26-0.4-43.86v-0.2c0.3-4.3,0.56-8.47,0.83-12.62c0.15-2.35,0.89-3.67,3.47-4
						c23.27-2.93,45.32-10.37,66.82-19.25c23.7-9.79,46.99-20.56,70.39-31.14c5.21-2.35,9.84-2.5,15,0.03
						c29.44,14.44,59.31,27.9,90.37,38.6c15.25,5.24,30.71,9.94,46.82,11.76c2.91,0.3,3.29,2.02,3.57,4.35
						c0.58,5.41,1.04,10.83,1.32,16.24C571.27,165.5,570.56,182.77,568.56,199.99z"/>
					<path d="M566.84,220.1c-3.47,4.1-6.63,8.32-10.45,12.27c-10.67,10.95-24.08,20.39-38.85,28.86c-2.55,1.47-5.11,2.91-7.71,4.35
						c2.53,8.98-1.09,18.92-9.43,24.08c-9.11,5.61-20.77,3.64-27.54-4.2c-1.01,0.53-2.02,1.09-3.01,1.62
						c-3.41,1.82-4.15,4.1-3.44,6.75c1.14,4.27,2.28,8.57,3.54,12.85c1.21,4.05-0.13,7.51-4.96,10.17
						c-14.01,7.69-28.05,15.35-42.09,23.02c-1.37,0.76-2.81,0.78-4.2,0.03c-13.99-7.64-27.97-15.28-41.91-22.94
						c-4.75-2.58-6.35-5.92-5.21-9.94c1.32-4.75,2.23-9.56,3.64-14.32c0.68-2.33-0.48-3.92-3.14-5.29c-1.44-0.73-2.88-1.49-4.3-2.23
						c-6.75,8.07-18.56,10.17-27.8,4.48c-8.45-5.21-12.04-15.33-9.36-24.41c-9.64-5.54-18.89-11.33-27.44-17.68
						c-10.65-7.89-20.54-16.16-26.99-26.03c-0.35-0.51-0.66-1.06-1.16-1.92c0.71,0.3,0.99,0.35,1.16,0.51
						c17.63,13.48,38.93,23.85,62.22,32.5c16.77,6.22,33.94,11.99,50.89,18.03c3.21,1.11,6.17,2.55,9.33,3.72
						c2.63,0.99,3.08,2.38,2.55,4.22c-1.42,5.01-2.78,10.04-3.9,15.1c-0.51,2.2-0.71,4.53-0.3,6.73c0.3,1.49,1.47,3.14,3.03,4.22
						c5.49,3.77,12.65,5.87,19.78,7.92c0.58,0.18,1.47,0.13,2.07-0.05c6.7-1.9,13.23-4,18.82-7.21c3.19-1.85,4.58-4.02,3.95-6.85
						c-1.54-6.85-2.88-13.73-4.43-20.59c-0.3-1.44,0.2-2.43,2.05-3.14c7.31-2.76,14.52-5.61,21.93-8.22
						c19.78-6.96,39.86-13.56,58.5-21.83c14.92-6.63,28.61-14.19,40.6-23.12c0.83-0.63,1.75-1.21,2.63-1.85L566.84,220.1z"/>
					<path d="M324.14,371.68h-34.98l-72.99,106.3h38.44l9.21-14.16h36.95l1.8,14.16h37.56L324.14,371.68z M279.5,438.78l16.44-25.65
						l2.86,25.65H279.5z"/>
					<polygon points="581.61,397.15 521.29,449.02 567.58,449.02 559.89,477.98 464.43,477.98 471.06,453.25 531.23,401.37 
						486.74,401.37 494.58,372.41 588.24,372.41 					"/>
					<polygon points="597.02,443.18 595.73,448.06 619.15,448.06 616.06,459.62 592.64,459.62 591.2,464.83 616.7,464.83 
						613.21,477.98 571.95,477.98 584.83,430.03 625.72,430.03 622.18,443.18 					"/>
					<polygon points="381.48,442.8 392.98,424.74 381.48,407.62 422.8,425.1 					"/>
				</g>
			</g>
			<g>
				<g>
					<path d="M218.59,505.27v2.33h0.3v-2.33H218.59z M218.59,505.27v2.33h0.3v-2.33H218.59z"/>
					<polygon points="234.5,517.24 234.5,519.62 216.17,519.62 216.17,493.67 233.95,493.67 233.95,496.04 218.9,496.04 
						218.9,505.27 218.59,505.27 218.59,507.6 218.9,507.6 218.9,517.24 					"/>
					<path d="M273.25,514.71v1.49h1.19L273.25,514.71z M257.01,498.57v-1.49h-1.19L257.01,498.57z"/>
					<polygon points="275.96,493.67 275.96,519.62 273.68,519.62 257.01,498.57 257.01,497.08 255.82,497.08 257.01,498.57 
						257.01,519.62 254.28,519.62 254.28,493.67 256.53,493.67 273.25,514.71 273.25,516.2 274.44,516.2 273.25,514.71 
						273.25,493.67 					"/>
					<path d="M315.99,506.64h2.63v9.89c-1.24,1.09-2.68,1.92-4.32,2.48c-1.67,0.56-3.39,0.83-5.18,0.83c-1.97,0-3.79-0.33-5.46-0.99
						c-1.67-0.66-3.11-1.59-4.35-2.76c-1.21-1.19-2.17-2.58-2.86-4.2c-0.66-1.59-1.01-3.36-1.01-5.26s0.35-3.64,1.01-5.26
						c0.68-1.59,1.65-3.01,2.88-4.17c1.24-1.19,2.68-2.12,4.35-2.78c1.67-0.63,3.49-0.96,5.46-0.96c1.97,0,3.79,0.3,5.44,0.91
						c1.64,0.63,3.04,1.57,4.2,2.83l-1.69,1.72c-1.09-1.09-2.3-1.85-3.59-2.33c-1.32-0.46-2.73-0.71-4.22-0.71
						c-1.62,0-3.09,0.28-4.43,0.81c-1.37,0.53-2.53,1.29-3.54,2.25c-0.99,0.99-1.77,2.12-2.33,3.41c-0.56,1.29-0.83,2.73-0.83,4.27
						s0.28,2.96,0.83,4.27c0.56,1.29,1.34,2.43,2.33,3.41c1.01,0.99,2.18,1.72,3.54,2.25c1.34,0.53,2.81,0.81,4.38,0.81
						c1.49,0,2.88-0.23,4.2-0.66c0.91-0.3,1.77-0.76,2.58-1.39V506.64z"/>
					<rect x="339.72" y="493.67" width="2.73" height="25.95"/>
					<rect x="218.9" y="505.27" width="13.41" height="2.33"/>
					<polygon points="385.9,493.67 385.9,519.62 383.65,519.62 366.98,498.57 366.98,519.62 364.23,519.62 364.23,493.67 
						366.5,493.67 383.2,514.71 383.2,493.67 					"/>
					<polygon points="426.02,517.24 426.02,519.62 407.68,519.62 407.68,493.67 425.46,493.67 425.46,496.04 410.44,496.04 
						410.44,505.27 423.84,505.27 423.84,507.6 410.44,507.6 410.44,517.24 					"/>
					<polygon points="464.16,517.24 464.16,519.62 445.82,519.62 445.82,493.67 463.6,493.67 463.6,496.04 448.55,496.04 
						448.55,505.27 461.96,505.27 461.96,507.6 448.55,507.6 448.55,517.24 					"/>
					<path d="M498.28,510.71c0.35-0.1,0.71-0.23,1.04-0.38c1.57-0.71,2.78-1.72,3.64-3.03c0.86-1.32,1.26-2.91,1.26-4.73
						c0-1.87-0.41-3.46-1.26-4.81c-0.86-1.32-2.07-2.33-3.64-3.03c-1.59-0.71-3.49-1.06-5.69-1.06h-9.69v25.95h2.73v-8.22h6.96
						c0.73,0,1.42-0.05,2.07-0.15l5.94,8.37h2.98L498.28,510.71z M486.67,510.36l-0.1-0.13l0.1-0.1V510.36z M493.57,509.04h-6.9v-13
						h6.9c2.58,0,4.55,0.58,5.89,1.72c1.34,1.11,2.02,2.73,2.02,4.81c0,2.05-0.68,3.64-2.02,4.78
						C498.13,508.49,496.15,509.04,493.57,509.04z"/>
					<rect x="524.05" y="493.67" width="2.73" height="25.95"/>
					<path d="M567.55,514.73v1.47h1.16L567.55,514.73z M551.31,498.57v-1.49h-1.19L551.31,498.57z"/>
					<polygon points="570.26,493.67 570.26,519.62 567.98,519.62 551.31,498.57 551.31,497.08 550.13,497.08 551.31,498.57 
						551.31,519.62 548.58,519.62 548.58,493.67 550.83,493.67 567.55,514.73 567.55,516.2 568.72,516.2 567.55,514.73 
						567.55,493.67 					"/>
					<path d="M611.36,514.46c-0.35,0.33-0.68,0.63-1.06,0.89v0.86l2.63,0.33L611.36,514.46z M611.36,514.46
						c-0.35,0.33-0.68,0.63-1.06,0.89v0.86l2.63,0.33L611.36,514.46z"/>
					<path d="M612.93,506.64v9.89l-1.57-2.07c-0.35,0.33-0.68,0.63-1.06,0.89v-8.7H612.93z"/>
					<path d="M610.3,516.2l2.63,0.33c-1.24,1.09-2.68,1.92-4.35,2.48c-1.64,0.56-3.36,0.83-5.18,0.83c-1.97,0-3.79-0.33-5.46-0.99
						c-1.67-0.66-3.11-1.59-4.32-2.76c-1.21-1.19-2.18-2.58-2.86-4.2c-0.68-1.59-1.01-3.36-1.01-5.26s0.33-3.64,1.01-5.26
						c0.68-1.59,1.64-3.01,2.88-4.17c1.24-1.19,2.68-2.12,4.35-2.78c1.67-0.63,3.49-0.96,5.46-0.96c1.97,0,3.79,0.3,5.41,0.91
						c1.64,0.63,3.06,1.57,4.22,2.83l-1.72,1.72c-1.09-1.09-2.28-1.85-3.59-2.33c-1.31-0.46-2.71-0.71-4.22-0.71
						c-1.59,0-3.08,0.28-4.43,0.81c-1.34,0.53-2.5,1.29-3.51,2.25c-0.99,0.99-1.77,2.12-2.33,3.41c-0.56,1.29-0.83,2.73-0.83,4.27
						s0.28,2.96,0.83,4.27c0.56,1.29,1.34,2.43,2.33,3.41c1.01,0.99,2.17,1.72,3.51,2.25c1.34,0.53,2.81,0.81,4.4,0.81
						c1.47,0,2.88-0.23,4.2-0.66c0.91-0.3,1.77-0.78,2.58-1.39V516.2z"/>
				</g>
				<g>
					<path class="st0" d="M218.59,505.27v2.33h0.3v-2.33H218.59z M218.59,505.27v2.33h0.3v-2.33H218.59z"/>
					<polygon points="234.5,517.24 234.5,519.62 216.17,519.62 216.17,493.67 233.95,493.67 233.95,496.04 218.9,496.04 
						218.9,505.27 218.59,505.27 218.59,507.6 218.9,507.6 218.9,517.24 					"/>
					<path class="st0" d="M273.25,514.71v1.49h1.19L273.25,514.71z M257.01,498.57v-1.49h-1.19L257.01,498.57z"/>
					<polygon points="275.96,493.67 275.96,519.62 273.68,519.62 257.01,498.57 257.01,497.08 255.82,497.08 257.01,498.57 
						257.01,519.62 254.28,519.62 254.28,493.67 256.53,493.67 273.25,514.71 273.25,516.2 274.44,516.2 273.25,514.71 
						273.25,493.67 					"/>
					<path d="M315.99,506.64h2.63v9.89c-1.24,1.09-2.68,1.92-4.32,2.48c-1.67,0.56-3.39,0.83-5.18,0.83c-1.97,0-3.79-0.33-5.46-0.99
						c-1.67-0.66-3.11-1.59-4.35-2.76c-1.21-1.19-2.17-2.58-2.86-4.2c-0.66-1.59-1.01-3.36-1.01-5.26s0.35-3.64,1.01-5.26
						c0.68-1.59,1.65-3.01,2.88-4.17c1.24-1.19,2.68-2.12,4.35-2.78c1.67-0.63,3.49-0.96,5.46-0.96c1.97,0,3.79,0.3,5.44,0.91
						c1.64,0.63,3.04,1.57,4.2,2.83l-1.69,1.72c-1.09-1.09-2.3-1.85-3.59-2.33c-1.32-0.46-2.73-0.71-4.22-0.71
						c-1.62,0-3.09,0.28-4.43,0.81c-1.37,0.53-2.53,1.29-3.54,2.25c-0.99,0.99-1.77,2.12-2.33,3.41c-0.56,1.29-0.83,2.73-0.83,4.27
						s0.28,2.96,0.83,4.27c0.56,1.29,1.34,2.43,2.33,3.41c1.01,0.99,2.18,1.72,3.54,2.25c1.34,0.53,2.81,0.81,4.38,0.81
						c1.49,0,2.88-0.23,4.2-0.66c0.91-0.3,1.77-0.76,2.58-1.39V506.64z"/>
					<rect x="339.72" y="493.67" width="2.73" height="25.95"/>
					<rect x="218.9" y="505.27" width="13.41" height="2.33"/>
					<polygon points="385.9,493.67 385.9,519.62 383.65,519.62 366.98,498.57 366.98,519.62 364.23,519.62 364.23,493.67 
						366.5,493.67 383.2,514.71 383.2,493.67 					"/>
					<polygon points="426.02,517.24 426.02,519.62 407.68,519.62 407.68,493.67 425.46,493.67 425.46,496.04 410.44,496.04 
						410.44,505.27 423.84,505.27 423.84,507.6 410.44,507.6 410.44,517.24 					"/>
					<polygon points="464.16,517.24 464.16,519.62 445.82,519.62 445.82,493.67 463.6,493.67 463.6,496.04 448.55,496.04 
						448.55,505.27 461.96,505.27 461.96,507.6 448.55,507.6 448.55,517.24 					"/>
					<path d="M498.28,510.71c0.35-0.1,0.71-0.23,1.04-0.38c1.57-0.71,2.78-1.72,3.64-3.03c0.86-1.32,1.26-2.91,1.26-4.73
						c0-1.87-0.41-3.46-1.26-4.81c-0.86-1.32-2.07-2.33-3.64-3.03c-1.59-0.71-3.49-1.06-5.69-1.06h-9.69v25.95h2.73v-8.22h6.96
						c0.73,0,1.42-0.05,2.07-0.15l5.94,8.37h2.98L498.28,510.71z M486.67,510.36l-0.1-0.13l0.1-0.1V510.36z M493.57,509.04h-6.9v-13
						h6.9c2.58,0,4.55,0.58,5.89,1.72c1.34,1.11,2.02,2.73,2.02,4.81c0,2.05-0.68,3.64-2.02,4.78
						C498.13,508.49,496.15,509.04,493.57,509.04z"/>
					<rect x="524.05" y="493.67" width="2.73" height="25.95"/>
					<path class="st0" d="M567.55,514.73v1.47h1.16L567.55,514.73z M551.31,498.57v-1.49h-1.19L551.31,498.57z"/>
					<polygon points="570.26,493.67 570.26,519.62 567.98,519.62 551.31,498.57 551.31,497.08 550.13,497.08 551.31,498.57 
						551.31,519.62 548.58,519.62 548.58,493.67 550.83,493.67 567.55,514.73 567.55,516.2 568.72,516.2 567.55,514.73 
						567.55,493.67 					"/>
					<path class="st0" d="M611.36,514.46c-0.35,0.33-0.68,0.63-1.06,0.89v0.86l2.63,0.33L611.36,514.46z M611.36,514.46
						c-0.35,0.33-0.68,0.63-1.06,0.89v0.86l2.63,0.33L611.36,514.46z"/>
					<path d="M612.93,506.64v9.89l-1.57-2.07c-0.35,0.33-0.68,0.63-1.06,0.89v-8.7H612.93z"/>
					<path d="M610.3,516.2l2.63,0.33c-1.24,1.09-2.68,1.92-4.35,2.48c-1.64,0.56-3.36,0.83-5.18,0.83c-1.97,0-3.79-0.33-5.46-0.99
						c-1.67-0.66-3.11-1.59-4.32-2.76c-1.21-1.19-2.18-2.58-2.86-4.2c-0.68-1.59-1.01-3.36-1.01-5.26s0.33-3.64,1.01-5.26
						c0.68-1.59,1.64-3.01,2.88-4.17c1.24-1.19,2.68-2.12,4.35-2.78c1.67-0.63,3.49-0.96,5.46-0.96c1.97,0,3.79,0.3,5.41,0.91
						c1.64,0.63,3.06,1.57,4.22,2.83l-1.72,1.72c-1.09-1.09-2.28-1.85-3.59-2.33c-1.31-0.46-2.71-0.71-4.22-0.71
						c-1.59,0-3.08,0.28-4.43,0.81c-1.34,0.53-2.5,1.29-3.51,2.25c-0.99,0.99-1.77,2.12-2.33,3.41c-0.56,1.29-0.83,2.73-0.83,4.27
						s0.28,2.96,0.83,4.27c0.56,1.29,1.34,2.43,2.33,3.41c1.01,0.99,2.17,1.72,3.51,2.25c1.34,0.53,2.81,0.81,4.4,0.81
						c1.47,0,2.88-0.23,4.2-0.66c0.91-0.3,1.77-0.78,2.58-1.39V516.2z"/>
				</g>
			</g>
		</g>
	</g>
</g>
</svg>
