<?xml version="1.0" encoding="utf-8"?>
<!-- Generator: Adobe Illustrator 27.3.1, SVG Export Plug-In . SVG Version: 6.00 Build 0)  -->
<svg version="1.1" id="Layer_1" xmlns="http://www.w3.org/2000/svg" xmlns:xlink="http://www.w3.org/1999/xlink" x="0px" y="0px"
	 viewBox="0 0 841.89 595.28" style="enable-background:new 0 0 841.89 595.28;" xml:space="preserve">
<style type="text/css">
	.st0{fill:#FFFFFF;}
	.st1{fill:#2C5C6E;}
	.st2{fill:#FBD600;}
</style>
<g>
	<path class="st0" d="M636.6,286.04c-0.36,3.18-0.76,6.35-1.19,9.51c-0.6,4.45-3.59,8.22-7.79,9.78
		c-49.87,18.65-127.11,30.61-213.81,30.61c-78.21,0-148.71-9.74-198.38-25.33c-4.47-1.39-7.73-5.25-8.35-9.89l-0.01-0.08
		c-1.44-10.63-2.5-21.33-3.41-31.67c-1.87-21.31-2.07-42.73-0.61-64.07c0.01-0.1,0.02-0.2,0.02-0.29
		c0.43-6.29,0.82-12.37,1.21-18.45c0.21-3.41,1.29-5.35,5.07-5.82c34-4.28,66.21-15.14,97.6-28.12
		c34.62-14.31,68.67-30.03,102.82-45.48c7.62-3.43,14.39-3.67,21.92,0.02c43.01,21.1,86.67,40.77,132.03,56.38
		c22.27,7.68,44.84,14.53,68.38,17.18c4.26,0.47,4.84,2.96,5.21,6.39c0.88,7.91,1.52,15.81,1.92,23.72
		C640.55,235.64,639.51,260.86,636.6,286.04z"/>
	<path class="st0" d="M632.75,314.87c0.44,0.18,0.9,0.36,1.35,0.54c-5.06,5.98-9.68,12.16-15.27,17.91
		c-15.58,16.01-35.19,29.78-56.75,42.16c-3.72,2.14-7.47,4.26-11.25,6.35c3.66,13.15-1.6,27.65-13.8,35.19
		c-13.3,8.21-30.32,5.32-40.25-6.11c-1.47,0.78-2.93,1.56-4.38,2.34c-5,2.68-6.06,6-5.02,9.88c1.68,6.26,3.32,12.53,5.18,18.76
		c1.77,5.91-0.2,10.97-7.25,14.85c-20.45,11.25-40.98,22.44-61.49,33.65c-1.97,1.08-4.1,1.13-6.12,0.02
		c-20.42-11.16-40.85-22.31-61.24-33.49c-6.92-3.8-9.25-8.65-7.61-14.54c1.94-6.94,3.27-13.97,5.32-20.9
		c1.01-3.43-0.71-5.74-4.58-7.74c-2.09-1.08-4.18-2.16-6.27-3.24c-9.85,11.77-27.13,14.84-40.6,6.53
		c-12.35-7.62-17.59-22.39-13.67-35.66c-14.08-8.07-27.61-16.55-40.09-25.81c-15.58-11.56-30.03-23.64-39.45-38.02
		c-0.5-0.76-0.93-1.55-1.69-2.81c1.02,0.43,1.44,0.52,1.69,0.72c25.74,19.69,56.88,34.86,90.88,47.48
		c24.52,9.09,49.59,17.54,74.36,26.34c4.67,1.66,9,3.74,13.62,5.46c3.86,1.44,4.52,3.44,3.76,6.15c-2.07,7.34-4.08,14.67-5.72,22.06
		c-0.72,3.24-1.04,6.62-0.43,9.85c0.42,2.16,2.14,4.58,4.42,6.15c8.02,5.53,18.5,8.58,28.89,11.59c0.85,0.24,2.16,0.18,3.04-0.07
		c9.78-2.78,19.31-5.84,27.46-10.55c4.68-2.71,6.7-5.86,5.77-10.01c-2.25-10.02-4.19-20.06-6.44-30.08
		c-0.47-2.09,0.29-3.55,2.98-4.57c10.66-4.02,21.2-8.2,32.04-12.01c28.88-10.18,58.21-19.81,85.48-31.9
		c21.8-9.66,41.79-20.74,59.27-33.77C630.14,316.63,631.46,315.76,632.75,314.87z"/>
</g>
</svg>
