<?xml version="1.0" encoding="utf-8"?>
<!-- Generator: Adobe Illustrator 27.3.1, SVG Export Plug-In . SVG Version: 6.00 Build 0)  -->
<svg version="1.1" id="Layer_1" xmlns="http://www.w3.org/2000/svg" xmlns:xlink="http://www.w3.org/1999/xlink" x="0px" y="0px"
	 viewBox="0 0 841.89 595.28" style="enable-background:new 0 0 841.89 595.28;" xml:space="preserve">
<style type="text/css">
	.st0{fill:#FFFFFF;}
	.st1{fill:#2C5C6E;}
	.st2{fill:#FBD600;}
</style>
<g>
	<g>
		<g>
			<g>
				<g>
					<path class="st0" d="M561.09,204.94c-0.24,2.07-0.49,4.13-0.77,6.18c-0.39,2.89-2.33,5.34-5.06,6.36
						c-32.41,12.12-82.61,19.9-138.95,19.9c-50.83,0-96.64-6.33-128.92-16.46c-2.9-0.91-5.02-3.41-5.43-6.43l-0.01-0.05
						c-0.94-6.91-1.62-13.86-2.21-20.58c-1.21-13.85-1.35-27.77-0.39-41.64c0.01-0.06,0.01-0.13,0.01-0.19
						c0.28-4.09,0.54-8.04,0.79-11.99c0.14-2.21,0.84-3.48,3.3-3.78c22.1-2.78,43.03-9.84,63.43-18.28
						c22.5-9.3,44.63-19.52,66.82-29.56c4.95-2.23,9.35-2.38,14.25,0.01c27.95,13.72,56.33,26.49,85.81,36.64
						c14.47,4.99,29.14,9.44,44.44,11.17c2.77,0.31,3.14,1.92,3.38,4.15c0.57,5.14,0.99,10.28,1.25,15.42
						C563.66,172.19,562.99,188.58,561.09,204.94z"/>
					<path class="st0" d="M558.59,223.68c0.29,0.12,0.58,0.24,0.88,0.35c-3.29,3.88-6.29,7.9-9.92,11.64
						c-10.12,10.41-22.87,19.35-36.88,27.4c-2.42,1.39-4.86,2.77-7.31,4.13c2.38,8.55-1.04,17.97-8.97,22.87
						c-8.64,5.33-19.71,3.46-26.16-3.97c-0.95,0.51-1.9,1.01-2.85,1.52c-3.25,1.74-3.94,3.9-3.26,6.42
						c1.09,4.07,2.15,8.14,3.37,12.19c1.15,3.84-0.13,7.13-4.71,9.65c-13.29,7.31-26.63,14.59-39.96,21.87
						c-1.28,0.7-2.67,0.74-3.98,0.01c-13.27-7.25-26.55-14.5-39.8-21.77c-4.5-2.47-6.01-5.62-4.94-9.45
						c1.26-4.51,2.12-9.08,3.46-13.58c0.66-2.23-0.46-3.73-2.98-5.03c-1.36-0.7-2.72-1.41-4.07-2.11
						c-6.4,7.65-17.63,9.64-26.38,4.24c-8.02-4.95-11.43-14.55-8.88-23.17c-9.15-5.24-17.94-10.75-26.05-16.77
						c-10.12-7.51-19.51-15.36-25.64-24.71c-0.32-0.49-0.61-1.01-1.1-1.82c0.67,0.28,0.94,0.34,1.1,0.46
						c16.73,12.8,36.97,22.66,59.06,30.86c15.93,5.91,32.23,11.4,48.33,17.12c3.04,1.08,5.85,2.43,8.85,3.55
						c2.51,0.94,2.94,2.24,2.44,4c-1.35,4.77-2.65,9.54-3.71,14.33c-0.47,2.11-0.68,4.3-0.28,6.4c0.27,1.41,1.39,2.98,2.87,4
						c5.22,3.6,12.02,5.57,18.78,7.53c0.55,0.16,1.4,0.12,1.98-0.05c6.36-1.81,12.55-3.8,17.85-6.86c3.04-1.76,4.36-3.81,3.75-6.5
						c-1.46-6.51-2.73-13.04-4.19-19.55c-0.31-1.36,0.19-2.31,1.94-2.97c6.93-2.61,13.78-5.33,20.82-7.81
						c18.77-6.62,37.83-12.87,55.55-20.73c14.17-6.28,27.16-13.48,38.52-21.94C556.9,224.83,557.76,224.26,558.59,223.68z"/>
					<path class="st0" d="M295.82,367.93l-69.3,100.95h36.51l8.73-13.46h35.08l1.72,13.46h35.65l-15.18-100.95H295.82z
						 M286.65,431.64l15.61-24.34l2.72,24.34H286.65z"/>
					<polygon class="st0" points="516.22,441.38 560.17,441.38 552.87,468.87 462.23,468.87 468.53,445.39 525.66,396.14 
						483.42,396.14 490.87,368.64 579.79,368.64 573.48,392.13 					"/>
					<polygon class="st0" points="588.12,435.83 586.88,440.45 609.13,440.45 606.2,451.44 583.96,451.44 582.59,456.38 
						606.79,456.38 603.47,468.87 564.31,468.87 576.54,423.34 615.37,423.34 611.99,435.83 					"/>
					<polygon class="st0" points="383.48,435.46 394.39,418.33 383.48,402.05 422.71,418.66 					"/>
				</g>
				<g>
					<path class="st0" d="M229.12,506.13h14.81v2.25h-17.41v-24.62h16.88v2.25h-14.28V506.13z M228.84,494.77h13.01v2.22h-13.01
						V494.77z"/>
					<path class="st0" d="M262.71,508.38v-24.62h2.15l16.99,21.38h-1.13v-21.38h2.57v24.62h-2.15L264.19,487h1.13v21.38H262.71z"/>
					<path class="st0" d="M314.77,508.6c-1.88,0-3.61-0.31-5.19-0.93c-1.58-0.62-2.95-1.49-4.12-2.62s-2.06-2.45-2.71-3.97
						c-0.65-1.52-0.97-3.19-0.97-4.99c0-1.81,0.32-3.47,0.97-4.99c0.64-1.52,1.55-2.85,2.73-3.97c1.17-1.13,2.55-2,4.13-2.62
						c1.58-0.62,3.31-0.93,5.19-0.93c1.88,0,3.59,0.29,5.15,0.88c1.56,0.59,2.89,1.48,3.99,2.67l-1.62,1.65
						c-1.03-1.03-2.17-1.77-3.41-2.22c-1.24-0.45-2.58-0.67-4.01-0.67c-1.52,0-2.93,0.25-4.2,0.76c-1.28,0.5-2.39,1.22-3.34,2.15
						c-0.95,0.93-1.69,2-2.22,3.24c-0.53,1.23-0.79,2.58-0.79,4.06c0,1.45,0.26,2.8,0.79,4.05c0.53,1.24,1.27,2.33,2.22,3.25
						c0.95,0.93,2.06,1.64,3.34,2.15c1.28,0.51,2.67,0.76,4.17,0.76c1.41,0,2.74-0.21,3.99-0.63c1.25-0.42,2.41-1.14,3.46-2.15
						l1.48,1.97c-1.17,1.03-2.54,1.81-4.12,2.34C318.12,508.33,316.48,508.6,314.77,508.6z M321.31,505.15v-9.07h2.5v9.39
						L321.31,505.15z"/>
					<path class="st0" d="M343.82,508.38v-24.62h2.6v24.62H343.82z"/>
					<path class="st0" d="M367.1,508.38v-24.62h2.15l16.99,21.38h-1.13v-21.38h2.57v24.62h-2.15L368.58,487h1.13v21.38H367.1z"/>
					<path class="st0" d="M410.96,506.13h14.81v2.25h-17.41v-24.62h16.88v2.25h-14.28V506.13z M410.68,494.77h13.01v2.22h-13.01
						V494.77z"/>
					<path class="st0" d="M447.15,506.13h14.81v2.25h-17.41v-24.62h16.88v2.25h-14.28V506.13z M446.87,494.77h13.01v2.22h-13.01
						V494.77z"/>
					<path class="st0" d="M480.74,508.38v-24.62h9.22c2.09,0,3.88,0.33,5.38,1c1.5,0.67,2.66,1.63,3.46,2.88
						c0.81,1.25,1.21,2.77,1.21,4.55c0,1.74-0.4,3.23-1.21,4.48c-0.81,1.25-1.96,2.22-3.46,2.88c-1.5,0.67-3.29,1-5.38,1h-7.77
						l1.16-1.2v9H480.74z M483.34,499.59l-1.16-1.23h7.7c2.46,0,4.33-0.54,5.61-1.62c1.28-1.08,1.92-2.59,1.92-4.54
						c0-1.97-0.64-3.49-1.92-4.57c-1.28-1.08-3.15-1.62-5.61-1.62h-7.7l1.16-1.23V499.59z M497.55,508.38l-6.33-8.93h2.81l6.37,8.93
						H497.55z"/>
					<path class="st0" d="M518.83,508.38v-24.62h2.6v24.62H518.83z"/>
					<path class="st0" d="M542.12,508.38v-24.62h2.15l16.99,21.38h-1.13v-21.38h2.57v24.62h-2.15L543.59,487h1.13v21.38H542.12z"/>
					<path class="st0" d="M594.17,508.6c-1.88,0-3.61-0.31-5.19-0.93c-1.58-0.62-2.95-1.49-4.12-2.62
						c-1.16-1.13-2.06-2.45-2.71-3.97c-0.65-1.52-0.97-3.19-0.97-4.99c0-1.81,0.32-3.47,0.97-4.99c0.64-1.52,1.55-2.85,2.73-3.97
						c1.17-1.13,2.55-2,4.13-2.62c1.58-0.62,3.31-0.93,5.19-0.93c1.88,0,3.59,0.29,5.15,0.88c1.56,0.59,2.89,1.48,3.99,2.67
						l-1.62,1.65c-1.03-1.03-2.17-1.77-3.41-2.22c-1.24-0.45-2.58-0.67-4.01-0.67c-1.52,0-2.93,0.25-4.2,0.76
						c-1.28,0.5-2.39,1.22-3.34,2.15c-0.95,0.93-1.69,2-2.22,3.24c-0.53,1.23-0.79,2.58-0.79,4.06c0,1.45,0.26,2.8,0.79,4.05
						c0.53,1.24,1.27,2.33,2.22,3.25c0.95,0.93,2.06,1.64,3.34,2.15c1.28,0.51,2.67,0.76,4.17,0.76c1.41,0,2.74-0.21,3.99-0.63
						c1.25-0.42,2.41-1.14,3.46-2.15l1.48,1.97c-1.17,1.03-2.54,1.81-4.12,2.34C597.52,508.33,595.88,508.6,594.17,508.6z
						 M600.71,505.15v-9.07h2.5v9.39L600.71,505.15z"/>
				</g>
			</g>
			<g>
				<g>
					<path class="st0" d="M561.09,204.94c-0.24,2.07-0.49,4.13-0.77,6.18c-0.39,2.89-2.33,5.34-5.06,6.36
						c-32.41,12.12-82.61,19.9-138.95,19.9c-50.83,0-96.64-6.33-128.92-16.46c-2.9-0.91-5.02-3.41-5.43-6.43l-0.01-0.05
						c-0.94-6.91-1.62-13.86-2.21-20.58c-1.21-13.85-1.35-27.77-0.39-41.64c0.01-0.06,0.01-0.13,0.01-0.19
						c0.28-4.09,0.54-8.04,0.79-11.99c0.14-2.21,0.84-3.48,3.3-3.78c22.1-2.78,43.03-9.84,63.43-18.28
						c22.5-9.3,44.63-19.52,66.82-29.56c4.95-2.23,9.35-2.38,14.25,0.01c27.95,13.72,56.33,26.49,85.81,36.64
						c14.47,4.99,29.14,9.44,44.44,11.17c2.77,0.31,3.14,1.92,3.38,4.15c0.57,5.14,0.99,10.28,1.25,15.42
						C563.66,172.19,562.99,188.58,561.09,204.94z"/>
					<path class="st0" d="M558.59,223.68c0.29,0.12,0.58,0.24,0.88,0.35c-3.29,3.88-6.29,7.9-9.92,11.64
						c-10.12,10.41-22.87,19.35-36.88,27.4c-2.42,1.39-4.86,2.77-7.31,4.13c2.38,8.55-1.04,17.97-8.97,22.87
						c-8.64,5.33-19.71,3.46-26.16-3.97c-0.95,0.51-1.9,1.01-2.85,1.52c-3.25,1.74-3.94,3.9-3.26,6.42
						c1.09,4.07,2.15,8.14,3.37,12.19c1.15,3.84-0.13,7.13-4.71,9.65c-13.29,7.31-26.63,14.59-39.96,21.87
						c-1.28,0.7-2.67,0.74-3.98,0.01c-13.27-7.25-26.55-14.5-39.8-21.77c-4.5-2.47-6.01-5.62-4.94-9.45
						c1.26-4.51,2.12-9.08,3.46-13.58c0.66-2.23-0.46-3.73-2.98-5.03c-1.36-0.7-2.72-1.41-4.07-2.11
						c-6.4,7.65-17.63,9.64-26.38,4.24c-8.02-4.95-11.43-14.55-8.88-23.17c-9.15-5.24-17.94-10.75-26.05-16.77
						c-10.12-7.51-19.51-15.36-25.64-24.71c-0.32-0.49-0.61-1.01-1.1-1.82c0.67,0.28,0.94,0.34,1.1,0.46
						c16.73,12.8,36.97,22.66,59.06,30.86c15.93,5.91,32.23,11.4,48.33,17.12c3.04,1.08,5.85,2.43,8.85,3.55
						c2.51,0.94,2.94,2.24,2.44,4c-1.35,4.77-2.65,9.54-3.71,14.33c-0.47,2.11-0.68,4.3-0.28,6.4c0.27,1.41,1.39,2.98,2.87,4
						c5.22,3.6,12.02,5.57,18.78,7.53c0.55,0.16,1.4,0.12,1.98-0.05c6.36-1.81,12.55-3.8,17.85-6.86c3.04-1.76,4.36-3.81,3.75-6.5
						c-1.46-6.51-2.73-13.04-4.19-19.55c-0.31-1.36,0.19-2.31,1.94-2.97c6.93-2.61,13.78-5.33,20.82-7.81
						c18.77-6.62,37.83-12.87,55.55-20.73c14.17-6.28,27.16-13.48,38.52-21.94C556.9,224.83,557.76,224.26,558.59,223.68z"/>
					<path class="st0" d="M295.82,367.93l-69.3,100.95h36.51l8.73-13.46h35.08l1.72,13.46h35.65l-15.18-100.95H295.82z
						 M286.65,431.64l15.61-24.34l2.72,24.34H286.65z"/>
					<polygon class="st0" points="516.22,441.38 560.17,441.38 552.87,468.87 462.23,468.87 468.53,445.39 525.66,396.14 
						483.42,396.14 490.87,368.64 579.79,368.64 573.48,392.13 					"/>
					<polygon class="st0" points="588.12,435.83 586.88,440.45 609.13,440.45 606.2,451.44 583.96,451.44 582.59,456.38 
						606.79,456.38 603.47,468.87 564.31,468.87 576.54,423.34 615.37,423.34 611.99,435.83 					"/>
					<polygon class="st0" points="383.48,435.46 394.39,418.33 383.48,402.05 422.71,418.66 					"/>
				</g>
				<g>
					<path class="st0" d="M229.12,506.13h14.81v2.25h-17.41v-24.62h16.88v2.25h-14.28V506.13z M228.84,494.77h13.01v2.22h-13.01
						V494.77z"/>
					<path class="st0" d="M262.71,508.38v-24.62h2.15l16.99,21.38h-1.13v-21.38h2.57v24.62h-2.15L264.19,487h1.13v21.38H262.71z"/>
					<path class="st0" d="M314.77,508.6c-1.88,0-3.61-0.31-5.19-0.93c-1.58-0.62-2.95-1.49-4.12-2.62s-2.06-2.45-2.71-3.97
						c-0.65-1.52-0.97-3.19-0.97-4.99c0-1.81,0.32-3.47,0.97-4.99c0.64-1.52,1.55-2.85,2.73-3.97c1.17-1.13,2.55-2,4.13-2.62
						c1.58-0.62,3.31-0.93,5.19-0.93c1.88,0,3.59,0.29,5.15,0.88c1.56,0.59,2.89,1.48,3.99,2.67l-1.62,1.65
						c-1.03-1.03-2.17-1.77-3.41-2.22c-1.24-0.45-2.58-0.67-4.01-0.67c-1.52,0-2.93,0.25-4.2,0.76c-1.28,0.5-2.39,1.22-3.34,2.15
						c-0.95,0.93-1.69,2-2.22,3.24c-0.53,1.23-0.79,2.58-0.79,4.06c0,1.45,0.26,2.8,0.79,4.05c0.53,1.24,1.27,2.33,2.22,3.25
						c0.95,0.93,2.06,1.64,3.34,2.15c1.28,0.51,2.67,0.76,4.17,0.76c1.41,0,2.74-0.21,3.99-0.63c1.25-0.42,2.41-1.14,3.46-2.15
						l1.48,1.97c-1.17,1.03-2.54,1.81-4.12,2.34C318.12,508.33,316.48,508.6,314.77,508.6z M321.31,505.15v-9.07h2.5v9.39
						L321.31,505.15z"/>
					<path class="st0" d="M343.82,508.38v-24.62h2.6v24.62H343.82z"/>
					<path class="st0" d="M367.1,508.38v-24.62h2.15l16.99,21.38h-1.13v-21.38h2.57v24.62h-2.15L368.58,487h1.13v21.38H367.1z"/>
					<path class="st0" d="M410.96,506.13h14.81v2.25h-17.41v-24.62h16.88v2.25h-14.28V506.13z M410.68,494.77h13.01v2.22h-13.01
						V494.77z"/>
					<path class="st0" d="M447.15,506.13h14.81v2.25h-17.41v-24.62h16.88v2.25h-14.28V506.13z M446.87,494.77h13.01v2.22h-13.01
						V494.77z"/>
					<path class="st0" d="M480.74,508.38v-24.62h9.22c2.09,0,3.88,0.33,5.38,1c1.5,0.67,2.66,1.63,3.46,2.88
						c0.81,1.25,1.21,2.77,1.21,4.55c0,1.74-0.4,3.23-1.21,4.48c-0.81,1.25-1.96,2.22-3.46,2.88c-1.5,0.67-3.29,1-5.38,1h-7.77
						l1.16-1.2v9H480.74z M483.34,499.59l-1.16-1.23h7.7c2.46,0,4.33-0.54,5.61-1.62c1.28-1.08,1.92-2.59,1.92-4.54
						c0-1.97-0.64-3.49-1.92-4.57c-1.28-1.08-3.15-1.62-5.61-1.62h-7.7l1.16-1.23V499.59z M497.55,508.38l-6.33-8.93h2.81l6.37,8.93
						H497.55z"/>
					<path class="st0" d="M518.83,508.38v-24.62h2.6v24.62H518.83z"/>
					<path class="st0" d="M542.12,508.38v-24.62h2.15l16.99,21.38h-1.13v-21.38h2.57v24.62h-2.15L543.59,487h1.13v21.38H542.12z"/>
					<path class="st0" d="M594.17,508.6c-1.88,0-3.61-0.31-5.19-0.93c-1.58-0.62-2.95-1.49-4.12-2.62
						c-1.16-1.13-2.06-2.45-2.71-3.97c-0.65-1.52-0.97-3.19-0.97-4.99c0-1.81,0.32-3.47,0.97-4.99c0.64-1.52,1.55-2.85,2.73-3.97
						c1.17-1.13,2.55-2,4.13-2.62c1.58-0.62,3.31-0.93,5.19-0.93c1.88,0,3.59,0.29,5.15,0.88c1.56,0.59,2.89,1.48,3.99,2.67
						l-1.62,1.65c-1.03-1.03-2.17-1.77-3.41-2.22c-1.24-0.45-2.58-0.67-4.01-0.67c-1.52,0-2.93,0.25-4.2,0.76
						c-1.28,0.5-2.39,1.22-3.34,2.15c-0.95,0.93-1.69,2-2.22,3.24c-0.53,1.23-0.79,2.58-0.79,4.06c0,1.45,0.26,2.8,0.79,4.05
						c0.53,1.24,1.27,2.33,2.22,3.25c0.95,0.93,2.06,1.64,3.34,2.15c1.28,0.51,2.67,0.76,4.17,0.76c1.41,0,2.74-0.21,3.99-0.63
						c1.25-0.42,2.41-1.14,3.46-2.15l1.48,1.97c-1.17,1.03-2.54,1.81-4.12,2.34C597.52,508.33,595.88,508.6,594.17,508.6z
						 M600.71,505.15v-9.07h2.5v9.39L600.71,505.15z"/>
				</g>
			</g>
			<g>
				<g>
					<path class="st0" d="M561.09,204.94c-0.24,2.07-0.49,4.13-0.77,6.18c-0.39,2.89-2.33,5.34-5.06,6.36
						c-32.41,12.12-82.61,19.9-138.95,19.9c-50.83,0-96.64-6.33-128.92-16.46c-2.9-0.91-5.02-3.41-5.43-6.43l-0.01-0.05
						c-0.94-6.91-1.62-13.86-2.21-20.58c-1.21-13.85-1.35-27.77-0.39-41.64c0.01-0.06,0.01-0.13,0.01-0.19
						c0.28-4.09,0.54-8.04,0.79-11.99c0.14-2.21,0.84-3.48,3.3-3.78c22.1-2.78,43.03-9.84,63.43-18.28
						c22.5-9.3,44.63-19.52,66.82-29.56c4.95-2.23,9.35-2.38,14.25,0.01c27.95,13.72,56.33,26.49,85.81,36.64
						c14.47,4.99,29.14,9.44,44.44,11.17c2.77,0.31,3.14,1.92,3.38,4.15c0.57,5.14,0.99,10.28,1.25,15.42
						C563.66,172.19,562.99,188.58,561.09,204.94z"/>
					<path class="st0" d="M558.59,223.68c0.29,0.12,0.58,0.24,0.88,0.35c-3.29,3.88-6.29,7.9-9.92,11.64
						c-10.12,10.41-22.87,19.35-36.88,27.4c-2.42,1.39-4.86,2.77-7.31,4.13c2.38,8.55-1.04,17.97-8.97,22.87
						c-8.64,5.33-19.71,3.46-26.16-3.97c-0.95,0.51-1.9,1.01-2.85,1.52c-3.25,1.74-3.94,3.9-3.26,6.42
						c1.09,4.07,2.15,8.14,3.37,12.19c1.15,3.84-0.13,7.13-4.71,9.65c-13.29,7.31-26.63,14.59-39.96,21.87
						c-1.28,0.7-2.67,0.74-3.98,0.01c-13.27-7.25-26.55-14.5-39.8-21.77c-4.5-2.47-6.01-5.62-4.94-9.45
						c1.26-4.51,2.12-9.08,3.46-13.58c0.66-2.23-0.46-3.73-2.98-5.03c-1.36-0.7-2.72-1.41-4.07-2.11
						c-6.4,7.65-17.63,9.64-26.38,4.24c-8.02-4.95-11.43-14.55-8.88-23.17c-9.15-5.24-17.94-10.75-26.05-16.77
						c-10.12-7.51-19.51-15.36-25.64-24.71c-0.32-0.49-0.61-1.01-1.1-1.82c0.67,0.28,0.94,0.34,1.1,0.46
						c16.73,12.8,36.97,22.66,59.06,30.86c15.93,5.91,32.23,11.4,48.33,17.12c3.04,1.08,5.85,2.43,8.85,3.55
						c2.51,0.94,2.94,2.24,2.44,4c-1.35,4.77-2.65,9.54-3.71,14.33c-0.47,2.11-0.68,4.3-0.28,6.4c0.27,1.41,1.39,2.98,2.87,4
						c5.22,3.6,12.02,5.57,18.78,7.53c0.55,0.16,1.4,0.12,1.98-0.05c6.36-1.81,12.55-3.8,17.85-6.86c3.04-1.76,4.36-3.81,3.75-6.5
						c-1.46-6.51-2.73-13.04-4.19-19.55c-0.31-1.36,0.19-2.31,1.94-2.97c6.93-2.61,13.78-5.33,20.82-7.81
						c18.77-6.62,37.83-12.87,55.55-20.73c14.17-6.28,27.16-13.48,38.52-21.94C556.9,224.83,557.76,224.26,558.59,223.68z"/>
					<path class="st0" d="M295.82,367.93l-69.3,100.95h36.51l8.73-13.46h35.08l1.72,13.46h35.65l-15.18-100.95H295.82z
						 M286.65,431.64l15.61-24.34l2.72,24.34H286.65z"/>
					<polygon class="st0" points="516.22,441.38 560.17,441.38 552.87,468.87 462.23,468.87 468.53,445.39 525.66,396.14 
						483.42,396.14 490.87,368.64 579.79,368.64 573.48,392.13 					"/>
					<polygon class="st0" points="588.12,435.83 586.88,440.45 609.13,440.45 606.2,451.44 583.96,451.44 582.59,456.38 
						606.79,456.38 603.47,468.87 564.31,468.87 576.54,423.34 615.37,423.34 611.99,435.83 					"/>
					<polygon class="st0" points="383.48,435.46 394.39,418.33 383.48,402.05 422.71,418.66 					"/>
				</g>
				<g>
					<path class="st0" d="M229.12,506.13h14.81v2.25h-17.41v-24.62h16.88v2.25h-14.28V506.13z M228.84,494.77h13.01v2.22h-13.01
						V494.77z"/>
					<path class="st0" d="M262.71,508.38v-24.62h2.15l16.99,21.38h-1.13v-21.38h2.57v24.62h-2.15L264.19,487h1.13v21.38H262.71z"/>
					<path class="st0" d="M314.77,508.6c-1.88,0-3.61-0.31-5.19-0.93c-1.58-0.62-2.95-1.49-4.12-2.62s-2.06-2.45-2.71-3.97
						c-0.65-1.52-0.97-3.19-0.97-4.99c0-1.81,0.32-3.47,0.97-4.99c0.64-1.52,1.55-2.85,2.73-3.97c1.17-1.13,2.55-2,4.13-2.62
						c1.58-0.62,3.31-0.93,5.19-0.93c1.88,0,3.59,0.29,5.15,0.88c1.56,0.59,2.89,1.48,3.99,2.67l-1.62,1.65
						c-1.03-1.03-2.17-1.77-3.41-2.22c-1.24-0.45-2.58-0.67-4.01-0.67c-1.52,0-2.93,0.25-4.2,0.76c-1.28,0.5-2.39,1.22-3.34,2.15
						c-0.95,0.93-1.69,2-2.22,3.24c-0.53,1.23-0.79,2.58-0.79,4.06c0,1.45,0.26,2.8,0.79,4.05c0.53,1.24,1.27,2.33,2.22,3.25
						c0.95,0.93,2.06,1.64,3.34,2.15c1.28,0.51,2.67,0.76,4.17,0.76c1.41,0,2.74-0.21,3.99-0.63c1.25-0.42,2.41-1.14,3.46-2.15
						l1.48,1.97c-1.17,1.03-2.54,1.81-4.12,2.34C318.12,508.33,316.48,508.6,314.77,508.6z M321.31,505.15v-9.07h2.5v9.39
						L321.31,505.15z"/>
					<path class="st0" d="M343.82,508.38v-24.62h2.6v24.62H343.82z"/>
					<path class="st0" d="M367.1,508.38v-24.62h2.15l16.99,21.38h-1.13v-21.38h2.57v24.62h-2.15L368.58,487h1.13v21.38H367.1z"/>
					<path class="st0" d="M410.96,506.13h14.81v2.25h-17.41v-24.62h16.88v2.25h-14.28V506.13z M410.68,494.77h13.01v2.22h-13.01
						V494.77z"/>
					<path class="st0" d="M447.15,506.13h14.81v2.25h-17.41v-24.62h16.88v2.25h-14.28V506.13z M446.87,494.77h13.01v2.22h-13.01
						V494.77z"/>
					<path class="st0" d="M480.74,508.38v-24.62h9.22c2.09,0,3.88,0.33,5.38,1c1.5,0.67,2.66,1.63,3.46,2.88
						c0.81,1.25,1.21,2.77,1.21,4.55c0,1.74-0.4,3.23-1.21,4.48c-0.81,1.25-1.96,2.22-3.46,2.88c-1.5,0.67-3.29,1-5.38,1h-7.77
						l1.16-1.2v9H480.74z M483.34,499.59l-1.16-1.23h7.7c2.46,0,4.33-0.54,5.61-1.62c1.28-1.08,1.92-2.59,1.92-4.54
						c0-1.97-0.64-3.49-1.92-4.57c-1.28-1.08-3.15-1.62-5.61-1.62h-7.7l1.16-1.23V499.59z M497.55,508.38l-6.33-8.93h2.81l6.37,8.93
						H497.55z"/>
					<path class="st0" d="M518.83,508.38v-24.62h2.6v24.62H518.83z"/>
					<path class="st0" d="M542.12,508.38v-24.62h2.15l16.99,21.38h-1.13v-21.38h2.57v24.62h-2.15L543.59,487h1.13v21.38H542.12z"/>
					<path class="st0" d="M594.17,508.6c-1.88,0-3.61-0.31-5.19-0.93c-1.58-0.62-2.95-1.49-4.12-2.62
						c-1.16-1.13-2.06-2.45-2.71-3.97c-0.65-1.52-0.97-3.19-0.97-4.99c0-1.81,0.32-3.47,0.97-4.99c0.64-1.52,1.55-2.85,2.73-3.97
						c1.17-1.13,2.55-2,4.13-2.62c1.58-0.62,3.31-0.93,5.19-0.93c1.88,0,3.59,0.29,5.15,0.88c1.56,0.59,2.89,1.48,3.99,2.67
						l-1.62,1.65c-1.03-1.03-2.17-1.77-3.41-2.22c-1.24-0.45-2.58-0.67-4.01-0.67c-1.52,0-2.93,0.25-4.2,0.76
						c-1.28,0.5-2.39,1.22-3.34,2.15c-0.95,0.93-1.69,2-2.22,3.24c-0.53,1.23-0.79,2.58-0.79,4.06c0,1.45,0.26,2.8,0.79,4.05
						c0.53,1.24,1.27,2.33,2.22,3.25c0.95,0.93,2.06,1.64,3.34,2.15c1.28,0.51,2.67,0.76,4.17,0.76c1.41,0,2.74-0.21,3.99-0.63
						c1.25-0.42,2.41-1.14,3.46-2.15l1.48,1.97c-1.17,1.03-2.54,1.81-4.12,2.34C597.52,508.33,595.88,508.6,594.17,508.6z
						 M600.71,505.15v-9.07h2.5v9.39L600.71,505.15z"/>
				</g>
			</g>
		</g>
	</g>
	<g>
		<g>
			<g>
				<g>
					<path class="st0" d="M561.09,204.94c-0.24,2.07-0.49,4.13-0.77,6.18c-0.39,2.89-2.33,5.34-5.06,6.36
						c-32.41,12.12-82.61,19.9-138.95,19.9c-50.83,0-96.64-6.33-128.92-16.46c-2.9-0.91-5.02-3.41-5.43-6.43l-0.01-0.05
						c-0.94-6.91-1.62-13.86-2.21-20.58c-1.21-13.85-1.35-27.77-0.39-41.64c0.01-0.06,0.01-0.13,0.01-0.19
						c0.28-4.09,0.54-8.04,0.79-11.99c0.14-2.21,0.84-3.48,3.3-3.78c22.1-2.78,43.03-9.84,63.43-18.28
						c22.5-9.3,44.63-19.52,66.82-29.56c4.95-2.23,9.35-2.38,14.25,0.01c27.95,13.72,56.33,26.49,85.81,36.64
						c14.47,4.99,29.14,9.44,44.44,11.17c2.77,0.31,3.14,1.92,3.38,4.15c0.57,5.14,0.99,10.28,1.25,15.42
						C563.66,172.19,562.99,188.58,561.09,204.94z"/>
					<path class="st0" d="M558.59,223.68c0.29,0.12,0.58,0.24,0.88,0.35c-3.29,3.88-6.29,7.9-9.92,11.64
						c-10.12,10.41-22.87,19.35-36.88,27.4c-2.42,1.39-4.86,2.77-7.31,4.13c2.38,8.55-1.04,17.97-8.97,22.87
						c-8.64,5.33-19.71,3.46-26.16-3.97c-0.95,0.51-1.9,1.01-2.85,1.52c-3.25,1.74-3.94,3.9-3.26,6.42
						c1.09,4.07,2.15,8.14,3.37,12.19c1.15,3.84-0.13,7.13-4.71,9.65c-13.29,7.31-26.63,14.59-39.96,21.87
						c-1.28,0.7-2.67,0.74-3.98,0.01c-13.27-7.25-26.55-14.5-39.8-21.77c-4.5-2.47-6.01-5.62-4.94-9.45
						c1.26-4.51,2.12-9.08,3.46-13.58c0.66-2.23-0.46-3.73-2.98-5.03c-1.36-0.7-2.72-1.41-4.07-2.11
						c-6.4,7.65-17.63,9.64-26.38,4.24c-8.02-4.95-11.43-14.55-8.88-23.17c-9.15-5.24-17.94-10.75-26.05-16.77
						c-10.12-7.51-19.51-15.36-25.64-24.71c-0.32-0.49-0.61-1.01-1.1-1.82c0.67,0.28,0.94,0.34,1.1,0.46
						c16.73,12.8,36.97,22.66,59.06,30.86c15.93,5.91,32.23,11.4,48.33,17.12c3.04,1.08,5.85,2.43,8.85,3.55
						c2.51,0.94,2.94,2.24,2.44,4c-1.35,4.77-2.65,9.54-3.71,14.33c-0.47,2.11-0.68,4.3-0.28,6.4c0.27,1.41,1.39,2.98,2.87,4
						c5.22,3.6,12.02,5.57,18.78,7.53c0.55,0.16,1.4,0.12,1.98-0.05c6.36-1.81,12.55-3.8,17.85-6.86c3.04-1.76,4.36-3.81,3.75-6.5
						c-1.46-6.51-2.73-13.04-4.19-19.55c-0.31-1.36,0.19-2.31,1.94-2.97c6.93-2.61,13.78-5.33,20.82-7.81
						c18.77-6.62,37.83-12.87,55.55-20.73c14.17-6.28,27.16-13.48,38.52-21.94C556.9,224.83,557.76,224.26,558.59,223.68z"/>
					<path class="st0" d="M295.82,367.93l-69.3,100.95h36.51l8.73-13.46h35.08l1.72,13.46h35.65l-15.18-100.95H295.82z
						 M286.65,431.64l15.61-24.34l2.72,24.34H286.65z"/>
					<polygon class="st0" points="516.22,441.38 560.17,441.38 552.87,468.87 462.23,468.87 468.53,445.39 525.66,396.14 
						483.42,396.14 490.87,368.64 579.79,368.64 573.48,392.13 					"/>
					<polygon class="st0" points="588.12,435.83 586.88,440.45 609.13,440.45 606.2,451.44 583.96,451.44 582.59,456.38 
						606.79,456.38 603.47,468.87 564.31,468.87 576.54,423.34 615.37,423.34 611.99,435.83 					"/>
					<polygon class="st0" points="383.48,435.46 394.39,418.33 383.48,402.05 422.71,418.66 					"/>
				</g>
				<g>
					<path class="st0" d="M229.12,506.13h14.81v2.25h-17.41v-24.62h16.88v2.25h-14.28V506.13z M228.84,494.77h13.01v2.22h-13.01
						V494.77z"/>
					<path class="st0" d="M262.71,508.38v-24.62h2.15l16.99,21.38h-1.13v-21.38h2.57v24.62h-2.15L264.19,487h1.13v21.38H262.71z"/>
					<path class="st0" d="M314.77,508.6c-1.88,0-3.61-0.31-5.19-0.93c-1.58-0.62-2.95-1.49-4.12-2.62s-2.06-2.45-2.71-3.97
						c-0.65-1.52-0.97-3.19-0.97-4.99c0-1.81,0.32-3.47,0.97-4.99c0.64-1.52,1.55-2.85,2.73-3.97c1.17-1.13,2.55-2,4.13-2.62
						c1.58-0.62,3.31-0.93,5.19-0.93c1.88,0,3.59,0.29,5.15,0.88c1.56,0.59,2.89,1.48,3.99,2.67l-1.62,1.65
						c-1.03-1.03-2.17-1.77-3.41-2.22c-1.24-0.45-2.58-0.67-4.01-0.67c-1.52,0-2.93,0.25-4.2,0.76c-1.28,0.5-2.39,1.22-3.34,2.15
						c-0.95,0.93-1.69,2-2.22,3.24c-0.53,1.23-0.79,2.58-0.79,4.06c0,1.45,0.26,2.8,0.79,4.05c0.53,1.24,1.27,2.33,2.22,3.25
						c0.95,0.93,2.06,1.64,3.34,2.15c1.28,0.51,2.67,0.76,4.17,0.76c1.41,0,2.74-0.21,3.99-0.63c1.25-0.42,2.41-1.14,3.46-2.15
						l1.48,1.97c-1.17,1.03-2.54,1.81-4.12,2.34C318.12,508.33,316.48,508.6,314.77,508.6z M321.31,505.15v-9.07h2.5v9.39
						L321.31,505.15z"/>
					<path class="st0" d="M343.82,508.38v-24.62h2.6v24.62H343.82z"/>
					<path class="st0" d="M367.1,508.38v-24.62h2.15l16.99,21.38h-1.13v-21.38h2.57v24.62h-2.15L368.58,487h1.13v21.38H367.1z"/>
					<path class="st0" d="M410.96,506.13h14.81v2.25h-17.41v-24.62h16.88v2.25h-14.28V506.13z M410.68,494.77h13.01v2.22h-13.01
						V494.77z"/>
					<path class="st0" d="M447.15,506.13h14.81v2.25h-17.41v-24.62h16.88v2.25h-14.28V506.13z M446.87,494.77h13.01v2.22h-13.01
						V494.77z"/>
					<path class="st0" d="M480.74,508.38v-24.62h9.22c2.09,0,3.88,0.33,5.38,1c1.5,0.67,2.66,1.63,3.46,2.88
						c0.81,1.25,1.21,2.77,1.21,4.55c0,1.74-0.4,3.23-1.21,4.48c-0.81,1.25-1.96,2.22-3.46,2.88c-1.5,0.67-3.29,1-5.38,1h-7.77
						l1.16-1.2v9H480.74z M483.34,499.59l-1.16-1.23h7.7c2.46,0,4.33-0.54,5.61-1.62c1.28-1.08,1.92-2.59,1.92-4.54
						c0-1.97-0.64-3.49-1.92-4.57c-1.28-1.08-3.15-1.62-5.61-1.62h-7.7l1.16-1.23V499.59z M497.55,508.38l-6.33-8.93h2.81l6.37,8.93
						H497.55z"/>
					<path class="st0" d="M518.83,508.38v-24.62h2.6v24.62H518.83z"/>
					<path class="st0" d="M542.12,508.38v-24.62h2.15l16.99,21.38h-1.13v-21.38h2.57v24.62h-2.15L543.59,487h1.13v21.38H542.12z"/>
					<path class="st0" d="M594.17,508.6c-1.88,0-3.61-0.31-5.19-0.93c-1.58-0.62-2.95-1.49-4.12-2.62
						c-1.16-1.13-2.06-2.45-2.71-3.97c-0.65-1.52-0.97-3.19-0.97-4.99c0-1.81,0.32-3.47,0.97-4.99c0.64-1.52,1.55-2.85,2.73-3.97
						c1.17-1.13,2.55-2,4.13-2.62c1.58-0.62,3.31-0.93,5.19-0.93c1.88,0,3.59,0.29,5.15,0.88c1.56,0.59,2.89,1.48,3.99,2.67
						l-1.62,1.65c-1.03-1.03-2.17-1.77-3.41-2.22c-1.24-0.45-2.58-0.67-4.01-0.67c-1.52,0-2.93,0.25-4.2,0.76
						c-1.28,0.5-2.39,1.22-3.34,2.15c-0.95,0.93-1.69,2-2.22,3.24c-0.53,1.23-0.79,2.58-0.79,4.06c0,1.45,0.26,2.8,0.79,4.05
						c0.53,1.24,1.27,2.33,2.22,3.25c0.95,0.93,2.06,1.64,3.34,2.15c1.28,0.51,2.67,0.76,4.17,0.76c1.41,0,2.74-0.21,3.99-0.63
						c1.25-0.42,2.41-1.14,3.46-2.15l1.48,1.97c-1.17,1.03-2.54,1.81-4.12,2.34C597.52,508.33,595.88,508.6,594.17,508.6z
						 M600.71,505.15v-9.07h2.5v9.39L600.71,505.15z"/>
				</g>
			</g>
			<g>
				<g>
					<path class="st0" d="M229.12,506.13h14.81v2.25h-17.41v-24.62h16.88v2.25h-14.28V506.13z M228.84,494.77h13.01v2.22h-13.01
						V494.77z"/>
					<path class="st0" d="M262.71,508.38v-24.62h2.15l16.99,21.38h-1.13v-21.38h2.57v24.62h-2.15L264.19,487h1.13v21.38H262.71z"/>
					<path class="st0" d="M314.77,508.6c-1.88,0-3.61-0.31-5.19-0.93c-1.58-0.62-2.95-1.49-4.12-2.62s-2.06-2.45-2.71-3.97
						c-0.65-1.52-0.97-3.19-0.97-4.99c0-1.81,0.32-3.47,0.97-4.99c0.64-1.52,1.55-2.85,2.73-3.97c1.17-1.13,2.55-2,4.13-2.62
						c1.58-0.62,3.31-0.93,5.19-0.93c1.88,0,3.59,0.29,5.15,0.88c1.56,0.59,2.89,1.48,3.99,2.67l-1.62,1.65
						c-1.03-1.03-2.17-1.77-3.41-2.22c-1.24-0.45-2.58-0.67-4.01-0.67c-1.52,0-2.93,0.25-4.2,0.76c-1.28,0.5-2.39,1.22-3.34,2.15
						c-0.95,0.93-1.69,2-2.22,3.24c-0.53,1.23-0.79,2.58-0.79,4.06c0,1.45,0.26,2.8,0.79,4.05c0.53,1.24,1.27,2.33,2.22,3.25
						c0.95,0.93,2.06,1.64,3.34,2.15c1.28,0.51,2.67,0.76,4.17,0.76c1.41,0,2.74-0.21,3.99-0.63c1.25-0.42,2.41-1.14,3.46-2.15
						l1.48,1.97c-1.17,1.03-2.54,1.81-4.12,2.34C318.12,508.33,316.48,508.6,314.77,508.6z M321.31,505.15v-9.07h2.5v9.39
						L321.31,505.15z"/>
					<path class="st0" d="M343.82,508.38v-24.62h2.6v24.62H343.82z"/>
					<path class="st0" d="M367.1,508.38v-24.62h2.15l16.99,21.38h-1.13v-21.38h2.57v24.62h-2.15L368.58,487h1.13v21.38H367.1z"/>
					<path class="st0" d="M410.96,506.13h14.81v2.25h-17.41v-24.62h16.88v2.25h-14.28V506.13z M410.68,494.77h13.01v2.22h-13.01
						V494.77z"/>
					<path class="st0" d="M447.15,506.13h14.81v2.25h-17.41v-24.62h16.88v2.25h-14.28V506.13z M446.87,494.77h13.01v2.22h-13.01
						V494.77z"/>
					<path class="st0" d="M480.74,508.38v-24.62h9.22c2.09,0,3.88,0.33,5.38,1c1.5,0.67,2.66,1.63,3.46,2.88
						c0.81,1.25,1.21,2.77,1.21,4.55c0,1.74-0.4,3.23-1.21,4.48c-0.81,1.25-1.96,2.22-3.46,2.88c-1.5,0.67-3.29,1-5.38,1h-7.77
						l1.16-1.2v9H480.74z M483.34,499.59l-1.16-1.23h7.7c2.46,0,4.33-0.54,5.61-1.62c1.28-1.08,1.92-2.59,1.92-4.54
						c0-1.97-0.64-3.49-1.92-4.57c-1.28-1.08-3.15-1.62-5.61-1.62h-7.7l1.16-1.23V499.59z M497.55,508.38l-6.33-8.93h2.81l6.37,8.93
						H497.55z"/>
					<path class="st0" d="M518.83,508.38v-24.62h2.6v24.62H518.83z"/>
					<path class="st0" d="M542.12,508.38v-24.62h2.15l16.99,21.38h-1.13v-21.38h2.57v24.62h-2.15L543.59,487h1.13v21.38H542.12z"/>
					<path class="st0" d="M594.17,508.6c-1.88,0-3.61-0.31-5.19-0.93c-1.58-0.62-2.95-1.49-4.12-2.62
						c-1.16-1.13-2.06-2.45-2.71-3.97c-0.65-1.52-0.97-3.19-0.97-4.99c0-1.81,0.32-3.47,0.97-4.99c0.64-1.52,1.55-2.85,2.73-3.97
						c1.17-1.13,2.55-2,4.13-2.62c1.58-0.62,3.31-0.93,5.19-0.93c1.88,0,3.59,0.29,5.15,0.88c1.56,0.59,2.89,1.48,3.99,2.67
						l-1.62,1.65c-1.03-1.03-2.17-1.77-3.41-2.22c-1.24-0.45-2.58-0.67-4.01-0.67c-1.52,0-2.93,0.25-4.2,0.76
						c-1.28,0.5-2.39,1.22-3.34,2.15c-0.95,0.93-1.69,2-2.22,3.24c-0.53,1.23-0.79,2.58-0.79,4.06c0,1.45,0.26,2.8,0.79,4.05
						c0.53,1.24,1.27,2.33,2.22,3.25c0.95,0.93,2.06,1.64,3.34,2.15c1.28,0.51,2.67,0.76,4.17,0.76c1.41,0,2.74-0.21,3.99-0.63
						c1.25-0.42,2.41-1.14,3.46-2.15l1.48,1.97c-1.17,1.03-2.54,1.81-4.12,2.34C597.52,508.33,595.88,508.6,594.17,508.6z
						 M600.71,505.15v-9.07h2.5v9.39L600.71,505.15z"/>
				</g>
			</g>
		</g>
	</g>
</g>
</svg>
